<svg aria-hidden="true" style="position: absolute; width: 0; height: 0; overflow: hidden;" version="1.1" xmlns="http://www.w3.org/2000/svg" xmlns:xlink="http://www.w3.org/1999/xlink">
<defs>
<symbol id="icon-ankara" viewBox="0 0 32 32">
<path d="M20.981 18.606c0.331 0.194 0.587 0.381 0.788 0.538v-0.456c0-0.119 0.075-0.219 0.188-0.25l0.331-0.094v-3.588h-1.313l0.006 3.85z"></path>
<path d="M8.394 20h1.575v1.313h-1.575v-1.313z"></path>
<path d="M8.75 22.625h0.431v-0.788h-1.375l0.944 0.788z"></path>
<path d="M4.981 22.625h0.431l0.944-0.788h-1.375v0.788z"></path>
<path d="M22.819 21.837v0.788h0.431l0.944-0.788h-1.375z"></path>
<path d="M27.019 22.625v-0.788h-1.375l0.944 0.788h0.431z"></path>
<path d="M9.706 21.837h0.787v0.788h-0.787v-0.788z"></path>
<path d="M10.494 20h2.1v1.313h-2.1v-1.313z"></path>
<path d="M18.887 21.313v-1.431c-0.306-0.181-1.275-0.669-2.887-0.669s-2.581 0.488-2.887 0.669v1.431h0.787v-1.050c0-0.144 0.119-0.262 0.262-0.262s0.262 0.119 0.262 0.262v1.050h1.313v-1.313c0-0.144 0.119-0.262 0.262-0.262s0.263 0.119 0.263 0.262v1.313h1.313v-1.050c0-0.144 0.119-0.262 0.262-0.262s0.262 0.119 0.262 0.262v1.050h0.788z"></path>
<path d="M8.919 23.675h14.162v-0.525h-1.837c-0.144 0-0.262-0.119-0.262-0.262v-1.050h-9.963v1.050c0 0.144-0.119 0.262-0.262 0.262h-1.838v0.525z"></path>
<path d="M24.394 10.581h1.050v1.050h-1.050v-1.050z"></path>
<path d="M24.394 16.375c0.163-0.025 0.337-0.044 0.525-0.044s0.363 0.012 0.525 0.044v-2.644h-1.050v2.644z"></path>
<path d="M24.394 13.206h1.050c0.288 0 0.525-0.238 0.525-0.525s-0.238-0.525-0.525-0.525h-1.050c-0.288 0-0.525 0.238-0.525 0.525s0.238 0.525 0.525 0.525z"></path>
<path d="M23.794 17.919c0.025-0.006 0.044-0.012 0.069-0.012h2.1c0.025 0 0.050 0.006 0.069 0.012v0l0.863 0.244c-0.2-0.512-0.712-1.306-1.988-1.306s-1.788 0.794-1.988 1.306l0.875-0.244z"></path>
<path d="M20.981 14.1v0.131h1.313v-0.131c0-0.363-0.294-0.656-0.656-0.656s-0.656 0.294-0.656 0.656v0z"></path>
<path d="M23.606 18.512l-1.313 0.375v0.587h1.313v-0.962z"></path>
<path d="M24.394 4.263h1.050v1.075h-1.050v-1.075z"></path>
<path d="M26.231 19.481h1.313v-0.587l-1.313-0.375v0.962z"></path>
<path d="M24.919 1.762l-0.456 1.981h0.913l-0.456-1.981z"></path>
<path d="M24.394 6.912h1.050c0.288 0 0.525-0.237 0.525-0.525s-0.238-0.525-0.525-0.525h-1.050c-0.288 0-0.525 0.237-0.525 0.525s0.238 0.525 0.525 0.525z"></path>
<path d="M24.394 10.056h1.050c0.288 0 0.525-0.238 0.525-0.525s-0.238-0.525-0.525-0.525h-1.050c-0.288 0-0.525 0.238-0.525 0.525 0 0.294 0.238 0.525 0.525 0.525z"></path>
<path d="M16.756 8.494c-0.050-0.269-0.169-0.638-0.494-0.769v-1.1c0-0.144-0.119-0.263-0.262-0.263s-0.262 0.119-0.262 0.263v1.1c-0.325 0.131-0.45 0.5-0.494 0.769 0.244-0.019 0.494-0.031 0.756-0.031s0.519 0.012 0.756 0.031v0z"></path>
<path d="M24.394 7.438h1.050v1.050h-1.050v-1.050z"></path>
<path d="M26.231 20h1.575v1.313h-1.575v-1.313z"></path>
<path d="M25.706 21.313v-2.887h-1.575v2.887h0.525v-0.525c0-0.144 0.119-0.262 0.262-0.262s0.262 0.119 0.262 0.262v0.525h0.525z"></path>
<path d="M24.006 24.2h-16.012l-0.875 1.050h17.762l-0.875-1.050z"></path>
<path d="M20.981 25.775h1.837v1.313h-1.837v-1.313z"></path>
<path d="M16.262 25.775h1.837v1.313h-1.837v-1.313z"></path>
<path d="M18.625 25.775h1.837v1.313h-1.837v-1.313z"></path>
<path d="M30.95 0.45l-0.456 1.981h0.913l-0.456-1.981z"></path>
<path d="M30.425 2.956h1.050v2.625h-1.050v-2.625z"></path>
<path d="M27.544 21.837h0.788v0.788h-0.788v-0.788z"></path>
<path d="M30.425 7.675h1.050v1.050h-1.050v-1.050z"></path>
<path d="M30.425 7.15h1.050c0.288 0 0.525-0.237 0.525-0.525s-0.238-0.525-0.525-0.525h-1.050c-0.288 0-0.525 0.237-0.525 0.525s0.238 0.525 0.525 0.525z"></path>
<path d="M9.181 25.775h1.838v1.313h-1.838v-1.313z"></path>
<path d="M11.544 18.325c0.162-0.081 0.338-0.156 0.525-0.231v-0.712c0-0.144 0.119-0.262 0.262-0.262s0.262 0.119 0.262 0.262v0.519c0.169-0.056 0.344-0.106 0.525-0.156v-0.625c0-0.144 0.119-0.262 0.262-0.262s0.262 0.119 0.262 0.262v0.5c0.25-0.050 0.512-0.1 0.787-0.137v-0.625c0-0.144 0.119-0.262 0.262-0.262s0.262 0.119 0.262 0.262v0.569c0.25-0.019 0.512-0.038 0.787-0.044v-0.794c0-0.144 0.119-0.262 0.262-0.262s0.262 0.119 0.262 0.262v0.794c0.275 0.006 0.538 0.019 0.788 0.044v-0.569c0-0.144 0.119-0.262 0.262-0.262s0.262 0.119 0.262 0.262v0.625c0.275 0.038 0.538 0.081 0.788 0.137v-0.5c0-0.144 0.119-0.262 0.262-0.262s0.262 0.119 0.262 0.262v0.625c0.181 0.050 0.356 0.1 0.525 0.156v-0.519c0-0.144 0.119-0.262 0.262-0.262s0.262 0.119 0.262 0.262v0.712c0.188 0.075 0.363 0.156 0.525 0.231v-1.337c-0.375-0.262-1.875-1.181-4.456-1.181-2.588 0-4.081 0.919-4.456 1.181l-0.012 1.337z"></path>
<path d="M13.9 25.775h1.838v1.313h-1.838v-1.313z"></path>
<path d="M12.769 19.481c0.287-0.188 1.356-0.788 3.231-0.788 1.869 0 2.944 0.6 3.231 0.788h2.106c-0.788-0.594-2.512-1.575-5.338-1.575-2.819 0-4.55 0.981-5.338 1.575h2.106z"></path>
<path d="M21.506 21.837h0.788v0.788h-0.788v-0.788z"></path>
<path d="M19.413 20h2.1v1.313h-2.1v-1.313z"></path>
<path d="M11.544 16.363c0.681-0.406 2.162-1.081 4.456-1.081s3.781 0.675 4.456 1.081v-0.656c-0.462-0.225-2.113-0.944-4.456-0.944s-3.994 0.719-4.456 0.944v0.656z"></path>
<path d="M22.031 20h1.575v1.313h-1.575v-1.313z"></path>
<path d="M11.544 25.775h1.831v1.313h-1.838v-1.313z"></path>
<path d="M13.9 12.656v0.525c0 0.144-0.119 0.262-0.262 0.262h-1.050v0.525c0 0.144-0.119 0.262-0.262 0.262h-0.787v0.894c0.7-0.313 2.281-0.887 4.456-0.887 2.181 0 3.762 0.575 4.456 0.887v-0.887h-0.788c-0.144 0-0.262-0.119-0.262-0.262v-0.525h-1.050c-0.144 0-0.262-0.119-0.262-0.262v-0.525h-4.188z"></path>
<path d="M7.869 23.675h0.525v-0.663l-1.313-1.094-1.313 1.094v2.762h0.525v-0.25c0-0.063 0.019-0.131 0.063-0.175v0l1.313-1.575c0.050-0.063 0.125-0.1 0.2-0.1v0z"></path>
<path d="M6.294 21.313h0.525v-0.525c0-0.144 0.119-0.262 0.263-0.262s0.263 0.119 0.263 0.262v0.525h0.525v-2.887h-1.575v2.887z"></path>
<path d="M0 25.25h2.1v6.3h-2.1v-6.3z"></path>
<path d="M2.625 24.988v0.788h2.625v-2.625h-1.837c-0.144 0-0.263-0.119-0.263-0.262v-1.050h-1.050v0.238l0.519 2.863c0 0.019 0.006 0.031 0.006 0.050v0z"></path>
<path d="M2.625 26.3v5.256h0.525v-2.869c0-0.144 0.119-0.262 0.263-0.262s0.263 0.119 0.263 0.262v2.863h0.525v-4.206c0-0.144 0.119-0.262 0.263-0.262s0.263 0.119 0.263 0.262v4.206h0.525v-2.863c0-0.144 0.119-0.262 0.263-0.262s0.263 0.119 0.263 0.262v2.863h0.544l0.013-5.256-3.706 0.006z"></path>
<path d="M0.525 13.969h1.050v7.869h-1.050v-7.869z"></path>
<path d="M0.050 24.725h1.994l-0.431-2.363h-1.131l-0.431 2.363z"></path>
<path d="M0.525 10.3h1.050c0.288 0 0.525-0.238 0.525-0.525s-0.238-0.525-0.525-0.525h-1.050c-0.287 0-0.525 0.238-0.525 0.525s0.237 0.525 0.525 0.525z"></path>
<path d="M0.525 10.825h1.050v1.050h-1.050v-1.050z"></path>
<path d="M23.344 27.35c0 0.144-0.119 0.262-0.262 0.262h-14.162c-0.144 0-0.262-0.119-0.262-0.262v-1.575h-1.838v5.775h18.363v-5.775h-1.837v1.575zM9.575 31.025h-1.313v-1.712c0-0.363 0.294-0.656 0.656-0.656s0.656 0.294 0.656 0.656v1.712zM11.931 31.025h-1.313v-1.712c0-0.363 0.294-0.656 0.656-0.656s0.656 0.294 0.656 0.656v1.712zM14.294 31.025h-1.313v-1.712c0-0.363 0.294-0.656 0.656-0.656s0.656 0.294 0.656 0.656v1.712zM16.656 31.025h-1.313v-1.712c0-0.363 0.294-0.656 0.656-0.656s0.656 0.294 0.656 0.656v1.712zM19.019 31.025h-1.313v-1.712c0-0.363 0.294-0.656 0.656-0.656s0.656 0.294 0.656 0.656v1.712zM21.375 31.025h-1.313v-1.712c0-0.363 0.294-0.656 0.656-0.656s0.656 0.294 0.656 0.656v1.712zM23.738 29.313v1.712h-1.313v-1.712c0-0.363 0.294-0.656 0.656-0.656s0.656 0.294 0.656 0.656v0z"></path>
<path d="M0.525 13.444h1.050c0.288 0 0.525-0.238 0.525-0.525s-0.238-0.525-0.525-0.525h-1.050c-0.287 0-0.525 0.238-0.525 0.525 0 0.294 0.237 0.525 0.525 0.525z"></path>
<path d="M30.425 13.969h1.050v7.869h-1.050v-7.869z"></path>
<path d="M25.706 25.512v0.262h0.525v-2.762l-1.313-1.094-1.313 1.094v0.663h0.525c0.075 0 0.15 0.038 0.2 0.094l1.313 1.575c0.038 0.044 0.063 0.106 0.063 0.169v0z"></path>
<path d="M0.525 7.675h1.050v1.050h-1.050v-1.050z"></path>
<path d="M31.475 12.394h-1.050c-0.288 0-0.525 0.238-0.525 0.525s0.238 0.525 0.525 0.525h1.050c0.288 0 0.525-0.238 0.525-0.525s-0.238-0.525-0.525-0.525z"></path>
<path d="M31.475 9.25h-1.050c-0.288 0-0.525 0.238-0.525 0.525s0.238 0.525 0.525 0.525h1.050c0.288 0 0.525-0.238 0.525-0.525 0-0.294-0.238-0.525-0.525-0.525z"></path>
<path d="M30.425 10.825h1.050v1.050h-1.050v-1.050z"></path>
<path d="M29.956 24.725h1.994l-0.431-2.363h-1.137l-0.425 2.363z"></path>
<path d="M25.706 31.55h0.525v-2.863c0-0.144 0.119-0.262 0.262-0.262s0.262 0.119 0.262 0.262v2.863h0.525v-4.206c0-0.144 0.119-0.262 0.262-0.262s0.262 0.119 0.262 0.262v4.206h0.525v-2.863c0-0.144 0.119-0.262 0.262-0.262s0.262 0.119 0.262 0.262v2.863h0.525v-5.256h-3.675v5.256z"></path>
<path d="M29.9 22.075v-0.238h-1.050v1.050c0 0.144-0.119 0.262-0.262 0.262h-1.837v2.625h2.625v-0.788c0-0.019 0-0.031 0.006-0.044v0l0.519-2.869z"></path>
<path d="M29.9 25.25h2.1v6.3h-2.1v-6.3z"></path>
<path d="M11.475 13.706h0.594v-0.525c0-0.144 0.119-0.262 0.262-0.262h1.044v-0.525c0-0.144 0.119-0.262 0.262-0.262h4.719c0.144 0 0.262 0.119 0.262 0.262v0.525h1.050c0.144 0 0.262 0.119 0.262 0.262v0.525h0.594c0.131-0.375 0.456-0.669 0.85-0.756v-0.4c-0.519-0.269-2.538-1.206-5.375-1.206-2.844 0-4.863 0.938-5.375 1.206v0.4c0.394 0.094 0.713 0.381 0.85 0.756v0z"></path>
<path d="M6.556 10.581h1.050v1.050h-1.050v-1.050z"></path>
<path d="M6.556 6.912h1.050c0.287 0 0.525-0.237 0.525-0.525s-0.237-0.525-0.525-0.525h-1.050c-0.287 0-0.525 0.237-0.525 0.525s0.237 0.525 0.525 0.525z"></path>
<path d="M6.556 10.056h1.050c0.287 0 0.525-0.238 0.525-0.525s-0.237-0.525-0.525-0.525h-1.050c-0.287 0-0.525 0.238-0.525 0.525 0 0.294 0.237 0.525 0.525 0.525z"></path>
<path d="M7.081 1.762l-0.456 1.981h0.912l-0.456-1.981z"></path>
<path d="M6.556 7.438h1.050v1.050h-1.050v-1.050z"></path>
<path d="M0.525 7.15h1.050c0.288 0 0.525-0.237 0.525-0.525s-0.238-0.525-0.525-0.525h-1.050c-0.287 0-0.525 0.237-0.525 0.525s0.237 0.525 0.525 0.525z"></path>
<path d="M11.019 14.1c0-0.363-0.294-0.656-0.656-0.656s-0.656 0.294-0.656 0.656v0.131h1.313v-0.131z"></path>
<path d="M21.163 11.869c-0.15-0.325-0.387-0.738-0.756-1.156-1.025-1.144-2.506-1.725-4.406-1.725s-3.381 0.581-4.406 1.725c-0.369 0.412-0.606 0.831-0.756 1.156 0.894-0.4 2.725-1.044 5.162-1.044s4.269 0.644 5.163 1.044z"></path>
<path d="M10.231 18.694v0.456c0.194-0.156 0.456-0.344 0.787-0.538v-3.85h-1.313v3.588l0.331 0.094c0.113 0.025 0.194 0.131 0.194 0.25v0z"></path>
<path d="M8.394 19.481h1.313v-0.587l-1.313-0.375v0.962z"></path>
<path d="M6.556 4.263h1.050v1.075h-1.050v-1.075z"></path>
<path d="M6.556 13.206h1.050c0.287 0 0.525-0.238 0.525-0.525s-0.237-0.525-0.525-0.525h-1.050c-0.287 0-0.525 0.238-0.525 0.525s0.237 0.525 0.525 0.525z"></path>
<path d="M5.963 17.919c0.025-0.006 0.044-0.012 0.069-0.012h2.1c0.025 0 0.050 0.006 0.069 0.012v0l0.863 0.244c-0.2-0.512-0.713-1.306-1.987-1.306s-1.788 0.794-1.987 1.306l0.875-0.244z"></path>
<path d="M6.556 16.375c0.162-0.025 0.338-0.044 0.525-0.044s0.362 0.012 0.525 0.044v-2.644h-1.050v2.644z"></path>
<path d="M5.769 18.512l-1.313 0.375v0.587h1.313v-0.962z"></path>
<path d="M4.194 20h1.575v1.313h-1.575v-1.313z"></path>
<path d="M1.050 0.45l-0.456 1.981h0.913l-0.456-1.981z"></path>
<path d="M3.669 21.837h0.787v0.788h-0.788v-0.788z"></path>
<path d="M0.525 2.956h1.050v2.625h-1.050v-2.625z"></path>
</symbol>
<symbol id="icon-big_ben" viewBox="0 0 32 32">
<path d="M12.050 20.106c0.037 0.5 0.169 0.994 0.387 1.444 0.306 0.625 0.762 1.163 1.338 1.55 0.156 0.106 0.325 0.2 0.494 0.281 0.45 0.219 0.944 0.35 1.45 0.387 0.188 0.019 0.375 0.019 0.569 0 0.5-0.038 0.994-0.169 1.444-0.387 0.169-0.081 0.337-0.175 0.494-0.281 0.419-0.281 0.775-0.644 1.063-1.063 0.106-0.156 0.2-0.325 0.281-0.494 0.219-0.456 0.35-0.944 0.387-1.45 0.019-0.188 0.019-0.375 0-0.569-0.038-0.5-0.169-0.994-0.387-1.444-0.306-0.625-0.762-1.163-1.337-1.55-0.156-0.106-0.325-0.2-0.494-0.281-0.456-0.219-0.944-0.35-1.45-0.387-0.188-0.019-0.375-0.019-0.569 0-0.5 0.037-0.994 0.169-1.444 0.387-0.169 0.081-0.338 0.175-0.494 0.281-0.575 0.394-1.037 0.925-1.338 1.55-0.219 0.45-0.35 0.944-0.387 1.45-0.025 0.194-0.025 0.387-0.006 0.575v0zM12.931 18.375l0.381 0.219c0.137 0.081 0.306 0.031 0.387-0.106s0.031-0.306-0.106-0.387l-0.381-0.219c0.231-0.331 0.519-0.619 0.85-0.85l0.219 0.381c0.081 0.137 0.25 0.181 0.387 0.106 0.137-0.081 0.181-0.25 0.106-0.387l-0.219-0.381c0.369-0.175 0.762-0.281 1.162-0.313v0.438c0 0.156 0.125 0.281 0.281 0.281s0.281-0.125 0.281-0.281v-0.438c0.406 0.031 0.8 0.137 1.163 0.313l-0.219 0.381c-0.081 0.137-0.031 0.306 0.106 0.387s0.306 0.031 0.387-0.106l0.219-0.381c0.331 0.231 0.619 0.519 0.85 0.85l-0.381 0.219c-0.137 0.081-0.181 0.25-0.106 0.387 0.081 0.137 0.25 0.181 0.387 0.106l0.381-0.219c0.175 0.369 0.281 0.762 0.313 1.163h-0.438c-0.156 0-0.281 0.125-0.281 0.281s0.125 0.281 0.281 0.281h0.438c-0.031 0.406-0.137 0.8-0.313 1.163l-0.381-0.219c-0.137-0.081-0.306-0.031-0.387 0.106s-0.031 0.306 0.106 0.387l0.381 0.219c-0.231 0.331-0.519 0.619-0.85 0.85l-0.219-0.381c-0.081-0.137-0.25-0.181-0.387-0.106-0.137 0.081-0.181 0.25-0.106 0.387l0.219 0.381c-0.369 0.175-0.762 0.281-1.163 0.313v-0.438c0-0.156-0.125-0.281-0.281-0.281s-0.281 0.125-0.281 0.281v0.438c-0.406-0.031-0.8-0.137-1.162-0.313l0.219-0.381c0.081-0.137 0.031-0.306-0.106-0.387s-0.306-0.031-0.387 0.106l-0.219 0.381c-0.331-0.231-0.619-0.519-0.85-0.85l0.381-0.219c0.137-0.081 0.181-0.25 0.106-0.387-0.081-0.137-0.25-0.181-0.387-0.106l-0.381 0.219c-0.175-0.369-0.281-0.762-0.313-1.163h0.438c0.156 0 0.281-0.125 0.281-0.281s-0.125-0.281-0.281-0.281h-0.438c0.031-0.4 0.137-0.794 0.313-1.163v0z"></path>
<path d="M15.869 20.113c0.094 0.063 0.213 0.063 0.306 0.006l1.619-0.988c0.131-0.081 0.175-0.256 0.094-0.387s-0.256-0.175-0.387-0.094l-1.462 0.894-0.881-0.594c-0.131-0.087-0.306-0.050-0.394 0.075-0.088 0.131-0.056 0.306 0.075 0.394l1.031 0.694z"></path>
<path d="M22.512 12.175l-1.131-1.981h-10.762l-1.131 1.981h13.025z"></path>
<path d="M16 7.362h4.813l-4.531-4.8v-2.281c0-0.156-0.125-0.281-0.281-0.281s-0.281 0.125-0.281 0.281v2.281l-4.531 4.8h4.813z"></path>
<path d="M10.619 32h1.981v-3.681c0-0.313 0.256-0.569 0.569-0.569s0.569 0.256 0.569 0.569v3.681h1.7v-3.681c0-0.313 0.256-0.569 0.569-0.569s0.569 0.256 0.569 0.569v3.681h1.7v-3.681c0-0.313 0.256-0.569 0.569-0.569s0.569 0.256 0.569 0.569v3.681h1.981v-5.381h-10.775v5.381z"></path>
<path d="M21.381 12.744h-10.762v0.85h-1.131v12.462h13.025v-12.463h-1.131v-0.85zM21.381 25.019h-10.762v-10.394h10.762v10.394z"></path>
<path d="M12.319 9.631h7.362v-1.7h-7.363v1.7zM17.981 8.494c0-0.156 0.125-0.281 0.281-0.281s0.281 0.125 0.281 0.281v0.569c0 0.156-0.125 0.281-0.281 0.281s-0.281-0.125-0.281-0.281v-0.569zM16.85 8.494c0-0.156 0.125-0.281 0.281-0.281s0.281 0.125 0.281 0.281v0.569c0 0.156-0.125 0.281-0.281 0.281s-0.281-0.125-0.281-0.281v-0.569zM15.719 8.494c0-0.156 0.125-0.281 0.281-0.281s0.281 0.125 0.281 0.281v0.569c0 0.156-0.125 0.281-0.281 0.281s-0.281-0.125-0.281-0.281v-0.569zM14.581 8.494c0-0.156 0.125-0.281 0.281-0.281s0.281 0.125 0.281 0.281v0.569c0 0.156-0.125 0.281-0.281 0.281s-0.281-0.125-0.281-0.281v-0.569zM13.45 8.494c0-0.156 0.125-0.281 0.281-0.281s0.281 0.125 0.281 0.281v0.569c0 0.156-0.125 0.281-0.281 0.281s-0.281-0.125-0.281-0.281v-0.569z"></path>
</symbol>
<symbol id="icon-brandenburg" viewBox="0 0 32 32">
<path d="M30.813 14.813h-29.625v-2.369h29.625v2.369zM2.369 10.075h7.706v-2.963h-7.706v2.963zM21.925 7.112v2.962h7.706v-2.963h-7.706zM0 10.669l1.188 1.188h29.625l1.188-1.188h-32zM2.369 6.519h7.706v-1.188h-8.887l1.181 1.188zM21.925 5.331v1.188h7.706l1.188-1.188h-8.894zM21.331 5.331v4.744h-10.662v-4.744h10.662zM20.15 6.519h-8.3v2.369h8.294v-2.369zM21.331 2.369h-10.662v2.369h10.669v-2.369zM16.294 0h-0.594v1.775h0.594v-1.775zM17.188 15.406h-2.375v14.225h2.375v-14.225zM17.775 30.225h-3.556v1.775h3.556v-1.775zM10.669 15.406h-2.369v14.225h2.369v-14.225zM11.256 30.225h-3.556v1.775h3.556v-1.775zM4.15 15.406h-2.375v14.225h2.369v-14.225zM4.744 30.225h-3.556v1.775h3.556v-1.775zM30.225 15.406h-2.369v14.225h2.369v-14.225zM30.813 30.225h-3.556v1.775h3.556v-1.775zM23.706 15.406h-2.369v14.225h2.369v-14.225zM24.294 30.225h-3.556v1.775h3.556v-1.775z"></path>
</symbol>
<symbol id="icon-bullfighting" viewBox="0 0 32 32">
<path d="M28.65 20.719l-1.863 3.531 1.119 0.094 1.675-2.881-0.931-0.744z"></path>
<path d="M5.494 7.769c0.244 0.569 0.888 0.85 1.463 0.631 0.55-0.275 0.794-0.938 0.544-1.5 0.231-0.088 0.35-0.338 0.281-0.575s-0.244-0.388-0.481-0.331c-0.431 0.025-0.85 0.131-1.244 0.306-0.4 0.162-0.763 0.4-1.081 0.694-0.181 0.169-0.2 0.444-0.050 0.638 0.156 0.194 0.369 0.269 0.569 0.138v0 0z"></path>
<path d="M18.788 20.719l1.119 0.462-1.863 3.256h-1.206l1.95-3.719z"></path>
<path d="M8.969 12.856l-0.769-2.831c0.519 0.144 1.069-0.025 1.419-0.425l0.206 3.006-0.856 0.25z"></path>
<path d="M5.381 9.963c0.125 0.294 0.394 0.494 0.713 0.525 0.313 0.031 0.625-0.113 0.8-0.375s0.231-0.531 0.081-0.813l-1.594 0.662z"></path>
<path d="M7.675 13.206l-1.656-2.169c0.556 0.069 1.1-0.2 1.375-0.688l1.194 2.588-0.912 0.269z"></path>
<path d="M9.919 13.894h-2.25v-0.444l2.194-0.406 0.056 0.85z"></path>
<path d="M5.081 10.494c0.194 0.262 0.481 0.45 0.8 0.525l-1.431 2.55 0.013 1.806 1.306-1.45 0.194 5.444 1.713-5.25 2.275 0.075 1.206 9.65c0.025 0.188-0.056 0.369-0.206 0.481s-0.35 0.137-0.519 0.063c-0.175-0.075-0.294-0.231-0.319-0.419l-1.406-7.281c-0.012-0.050-0.050-0.087-0.1-0.087-0.050-0.006-0.094 0.025-0.113 0.069l-3.112 7.863c-0.081 0.206-0.275 0.337-0.494 0.337s-0.419-0.137-0.5-0.337h-0.294l-1.862 1.3-2.231 0.188 1.038-6.837 2.475-2.75-0.019-3.113 1.588-2.825z"></path>
<path d="M9.356 8.325c0.169 0.275 0.175 0.625 0.006 0.9-0.162 0.281-0.469 0.444-0.787 0.431-0.325-0.012-0.675-0.387-0.813-0.681l1.594-0.65z"></path>
<path d="M9.713 9.488c0.188-0.269 0.275-0.6 0.244-0.931l2.963 1.144 0.813 2.944c0.044 0.162 0 0.338-0.119 0.463s-0.294 0.169-0.463 0.125c-0.162-0.044-0.294-0.169-0.338-0.338l-0.688-2.481-2.412-0.925z"></path>
<path d="M25.675 20.063l0.375 0.556 2.231-0.65 2.231 1.675 0.375 2.7h1.113l-0.375-3.35-0.65-2.794v-1.406l-0.281-0.469-0.163-0.738c0.581-0.131 0.95-0.706 0.831-1.294s-0.219-0.95-0.806-0.844c-1.775 0.369-3.613-0.113-4.975-1.3l-1.488 0.188c1.688 1.675 4.144 2.313 6.431 1.675 0.194-0.012 0.375 0.081 0.481 0.244 0.1 0.162 0.1 0.375 0 0.537s-0.363 0.25-0.55 0.231l-9.231-1.394c-0.55-0.081-1.113 0.088-1.525 0.463l-4.525 4.106-0.094 0.375-1.675-0.188 1.769 1.025 0.65 2.788h1.025l1.3-2.231 2.419 0.837 0.469 2.044 1.956 1.394v-1.3l-1.119-0.744 0.375-1.488 3.425-0.65z"></path>
</symbol>
<symbol id="icon-china_h" viewBox="0 0 32 32">
<path d="M26.3 12.019l-0.256-1.019c-0.219 0.025-0.444 0.037-0.663 0.037h-0.4l0.275 1.094c0.35-0.019 0.7-0.050 1.044-0.113v0z"></path>
<path d="M15.45 0h1.106v3.313h-1.106v-3.313z"></path>
<path d="M21.913 12.137l-0.275-1.106h-1.069l0.275 1.106h1.069z"></path>
<path d="M10.088 12.137h1.069l0.275-1.106h-1.069l-0.275 1.106z"></path>
<path d="M9.225 11.037h-1.069l-0.275 1.106h1.069l0.275-1.106z"></path>
<path d="M4.875 10.769c-1.013-0.306-1.938-0.869-2.669-1.644v1.113c0.712 0.669 1.538 1.169 2.431 1.488l0.237-0.956z"></path>
<path d="M7.019 11.037h-0.4c-0.225 0-0.444-0.012-0.662-0.037l-0.256 1.019c0.344 0.063 0.688 0.1 1.044 0.106l0.275-1.088z"></path>
<path d="M16 4.794c-1.363 1.869-2.912 3.587-4.619 5.138h9.237c-1.706-1.55-3.256-3.269-4.619-5.138v0zM16.55 8.825h-1.106v-1.106h1.106v1.106z"></path>
<path d="M22.281 9.931h1.531c-2.313-1.925-4.375-4.112-6.156-6.537v1.019h-0.556c1.506 2.031 3.244 3.888 5.181 5.519v0z"></path>
<path d="M13.363 12.137l0.275-1.106h-1.069l-0.275 1.106h1.069z"></path>
<path d="M23.050 12.137h1.069l-0.275-1.106h-1.069l0.275 1.106z"></path>
<path d="M15.45 12.137v-1.106h-0.675l-0.275 1.106h0.95z"></path>
<path d="M16.55 12.137h0.95l-0.275-1.106h-0.675v1.106z"></path>
<path d="M18.637 12.137h1.069l-0.275-1.106h-1.069l0.275 1.106z"></path>
<path d="M14.9 4.412h-0.556v-1.019c-1.781 2.425-3.844 4.612-6.156 6.537h1.531c1.938-1.631 3.675-3.487 5.181-5.519v0z"></path>
<path d="M23.175 15.45h1.106v12.137h-1.106v-12.137z"></path>
<path d="M25.381 17.656h2.206v1.106h-2.206v-1.106z"></path>
<path d="M27.363 11.725c0.894-0.319 1.719-0.819 2.431-1.488v-1.106c-0.731 0.775-1.656 1.338-2.669 1.644l0.238 0.95z"></path>
<path d="M28.688 28.688h-1.106v2.206h-1.106v-2.206h-1.106v2.206h-1.106v-2.206h-1.106v2.206h-1.106v-2.206h-1.106v2.206h-1.106v-2.206h-1.106v2.206h-5.519v-2.206h-1.106v2.206h-1.106v-2.206h-1.106v2.206h-1.106v-2.206h-1.106v2.206h-1.106v-2.206h-1.056v2.206h-1.106v-2.206h-1.1v2.206h-1.106v1.106h27.587v-1.106h-1.106v-2.206z"></path>
<path d="M29.531 11.863c-1.325 0.894-2.881 1.381-4.519 1.381h-18.031c-1.631 0-3.194-0.481-4.519-1.381 0.556 1.45 1.962 2.481 3.6 2.481h19.863c1.65 0 3.050-1.031 3.606-2.481v0z"></path>
<path d="M4.412 17.656h2.206v1.106h-2.206v-1.106z"></path>
<path d="M7.725 15.45h1.106v12.137h-1.106v-12.137z"></path>
<path d="M22.069 18.756v-3.313h-12.137v3.313h12.137zM18.756 16.55h1.106v1.106h-1.106v-1.106zM15.45 16.55h1.106v1.106h-1.106v-1.106zM12.137 16.55h1.106v1.106h-1.106v-1.106z"></path>
<path d="M30.894 30.894h1.106v1.106h-1.106v-1.106z"></path>
<path d="M0 30.894h1.106v1.106h-1.106v-1.106z"></path>
</symbol>
<symbol id="icon-eiffel-tower" viewBox="0 0 32 32">
<path d="M23.431 31.706h-1.844c-0.581-1.137-1.106-2.181-1.55-3.169h0.231c0.094 0 0.156-0.075 0.156-0.156v-1.781c0-0.094-0.075-0.156-0.156-0.156h-1.15c-0.494-1.231-0.894-2.413-1.2-3.644h0.306c0.094 0 0.156-0.075 0.156-0.156v-1.431c0-0.094-0.075-0.156-0.156-0.156h-0.675c-0.063-0.337-0.125-0.675-0.169-1.012 0-0.031 0-0.063-0.012-0.075-0.125-0.781-0.212-1.613-0.275-2.506 0.012-0.044 0.012-0.094-0.012-0.125-0.063-0.781-0.106-1.613-0.156-2.506 0.012-0.031 0.012-0.075 0-0.125-0.031-0.781-0.063-1.631-0.075-2.519v-0.063c-0.012-0.813-0.031-1.662-0.031-2.569v-0.031c0-0.813-0.012-1.694-0.012-2.6v-1.456c0-0.094-0.075-0.156-0.156-0.156h-0.087v-1.319c0-0.381-0.188-0.706-0.431-0.8v-3.038c0-0.094-0.075-0.156-0.156-0.156-0.075 0-0.156 0.075-0.156 0.156v3.025c-0.244 0.094-0.431 0.413-0.431 0.8v1.319h-0.075c-0.094 0-0.156 0.075-0.156 0.156v1.431c0 0.013 0 0.031 0.012 0.044 0 0.906 0 1.769-0.012 2.581v0.012c0 0.906-0.012 1.769-0.031 2.581-0.012 0.031-0.012 0.063 0 0.075-0.012 0.894-0.044 1.738-0.075 2.519-0.012 0.031-0.012 0.075 0 0.106-0.044 0.894-0.094 1.719-0.156 2.506-0.012 0.044-0.031 0.094-0.012 0.125-0.075 0.894-0.169 1.706-0.275 2.488-0.012 0.031-0.031 0.075-0.012 0.125-0.044 0.337-0.106 0.675-0.169 1h-0.694c-0.094 0-0.156 0.075-0.156 0.156v1.431c0 0.094 0.075 0.156 0.156 0.156h0.306c-0.094 0.369-0.2 0.738-0.306 1.106 0 0.012 0 0.012-0.012 0.031-0.244 0.831-0.537 1.663-0.875 2.506h-1.137c-0.094 0-0.156 0.075-0.156 0.156v1.781c0 0.094 0.075 0.156 0.156 0.156h0.231c-0.444 0.981-0.969 2.012-1.55 3.169h-1.844c-0.094 0-0.156 0.075-0.156 0.156 0 0.094 0.075 0.156 0.156 0.156h14.925c0.094 0 0.156-0.075 0.156-0.156-0.025-0.087-0.1-0.15-0.194-0.15v0zM11.738 29.663l1.412 1.063-2.369 0.863c0.338-0.681 0.662-1.306 0.956-1.925v0zM12.625 27.744c0.156-0.337 0.294-0.663 0.412-0.981h0.044v1.462h-0.456v-0.481zM13.95 24.238l1.35 1.031-2.075 1.012c0.275-0.688 0.525-1.369 0.725-2.044zM14.625 21.581c0.012-0.063 0.031-0.137 0.044-0.2h0.4v1.106h-0.431v-0.906h-0.012zM14.731 21.056c0.044-0.231 0.075-0.444 0.125-0.675l0.644 0.675h-0.769zM17.313 22.488h-0.431v-1.106h0.4c0.012 0.063 0.012 0.106 0.031 0.169v0.938zM16.731 21.056h-0.262l0.644-0.694c0.031 0.231 0.075 0.462 0.125 0.694h-0.506zM18.712 26.281l-2.075-1.012 1.35-1.031c0.219 0.675 0.462 1.356 0.725 2.044zM19.325 28.219h-0.462v-1.462h0.044c0.137 0.325 0.275 0.663 0.413 1l0.006 0.462zM21.169 31.569l-2.369-0.863 1.431-1.044c0.281 0.619 0.6 1.244 0.938 1.906zM18.544 30.506c-0.063-0.106-0.125-0.212-0.169-0.306-0.244-0.506-0.475-1.031-0.706-1.55l2.275 0.831-1.4 1.025zM16.131 19.106l0.875 0.925-0.875 0.925v-1.85zM16.375 7.037l-0.244 0.494v-0.494h0.244zM15.806 7.037v0.475l-0.244-0.475h0.244zM15.806 10.162l-0.338-0.644 0.338-0.662v1.306zM16.131 8.838l0.337 0.662-0.337 0.662v-1.325zM15.806 12.819l-0.369-0.694 0.369-0.694v1.387zM16.131 11.438l0.369 0.688-0.369 0.694v-1.381zM15.806 15.506l-0.444-0.756 0.444-0.738v1.494zM16.131 14.019l0.462 0.756-0.462 0.756v-1.512zM15.806 18.231l-0.6-0.831 0.6-0.831v1.663zM16.131 16.556l0.613 0.831-0.613 0.831v-1.663zM15.806 20.95l-0.875-0.925 0.875-0.925v1.85zM16.994 28.219h-0.462v-1.462h0.094c0.125 0.356 0.244 0.706 0.381 1.063v0.4h-0.012zM14.181 26.756h0.463v0.981c-0.063 0.156-0.125 0.325-0.188 0.475h-0.275v-1.456zM14.963 26.756h0.044c-0.012 0.044-0.031 0.075-0.044 0.125v-0.125zM14.963 27.806c0.137-0.356 0.262-0.694 0.369-1.044h0.094v1.462h-0.463v-0.419zM16.206 26.756v1.462h-0.463v-1.462h0.463zM17.3 26.756h0.462v1.462h-0.275c-0.063-0.156-0.125-0.306-0.188-0.475v-0.988zM16.994 26.9l-0.044-0.137h0.044v0.137zM17.931 26.438h-1.094c-0.094-0.294-0.188-0.581-0.262-0.863l1.75 0.863h-0.394zM16.512 26.438h-1.063c0.125-0.369 0.213-0.738 0.306-1.094v-0.012c0.075-0.337 0.156-0.675 0.213-1 0.131 0.675 0.313 1.4 0.544 2.106v0zM15.119 26.438h-1.506l1.75-0.863c-0.075 0.294-0.156 0.587-0.244 0.863zM14.806 28.544h0.213c-0.188 0.125-0.369 0.275-0.556 0.462 0.063-0.156 0.125-0.306 0.2-0.462h0.144zM17.144 28.544h0.137c0.063 0.156 0.125 0.294 0.188 0.444-0.169-0.188-0.356-0.325-0.525-0.444h0.2zM18.081 26.756h0.462v1.462h-0.462v-1.462zM16.438 25.025c-0.169-0.725-0.275-1.431-0.306-2.087l1.675 1.063-1.369 1.025zM16.131 21.413l0.031-0.031h0.413v1.106h-0.444v-1.075zM16.175 18.688l0.613-0.844c0.063 0.6 0.125 1.15 0.188 1.706l-0.8-0.863zM16.163 16.075l0.462-0.769c0.031 0.525 0.063 1.031 0.094 1.519l-0.556-0.75zM16.144 13.45l0.381-0.706c0.012 0.475 0.031 0.95 0.044 1.4l-0.425-0.694zM16.144 10.806l0.337-0.662c0 0.463 0.012 0.906 0.012 1.338l-0.35-0.675zM16.144 8.175l0.325-0.644v1.294l-0.325-0.65zM16.481 5.612v1.106h-1.012v-1.106h1.012zM15.469 7.544l0.325 0.631-0.325 0.644v-1.275zM15.794 10.806l-0.356 0.662c0-0.431 0.012-0.863 0.012-1.319l0.344 0.656zM15.794 13.45l-0.412 0.694c0.012-0.444 0.031-0.906 0.044-1.381l0.369 0.688zM15.775 16.075l-0.556 0.756c0.031-0.494 0.063-0.981 0.094-1.506l0.463 0.75zM15.762 18.688l-0.8 0.844c0.075-0.538 0.137-1.106 0.188-1.694l0.613 0.85zM15.375 21.381h0.412l0.031 0.031v1.075h-0.431v-1.106h-0.012zM15.519 25.025l-1.369-1.031 1.675-1.044c-0.031 0.644-0.137 1.35-0.306 2.075zM13.412 26.756h0.463v1.462h-0.463v-1.462zM14.287 28.65c-0.231 0.556-0.475 1.094-0.725 1.6-0.044 0.094-0.106 0.188-0.156 0.275l-1.4-1.044 2.281-0.831zM13.119 31.063c-0.094 0.2-0.2 0.413-0.294 0.631h-1.463l1.756-0.631zM13.838 30.419c0.725-1.244 1.444-1.863 2.15-1.863 0.694 0 1.4 0.613 2.119 1.831 0.075 0.156 0.137 0.306 0.212 0.444 0 0.012 0.012 0.031 0.012 0.031 0.137 0.294 0.294 0.569 0.431 0.844h-5.581c0.213-0.413 0.444-0.844 0.656-1.288v0zM18.837 31.063l1.75 0.631h-1.462c-0.087-0.219-0.2-0.431-0.288-0.631v0zM19.975 29.156l-1.694-0.613h1.413c0.081 0.2 0.188 0.4 0.281 0.613v0zM20.113 28.219h-0.212c-0.075-0.188-0.169-0.369-0.244-0.538v-0.925h0.462v1.462zM19.325 26.756v0.2c-0.031-0.063-0.044-0.125-0.075-0.2h0.075zM17.819 23.606l-1.294-0.813h1.075c0.069 0.275 0.144 0.55 0.219 0.813v0zM18.069 22.488h-0.212c-0.075-0.325-0.156-0.644-0.212-0.981v-0.125h0.431v1.106zM15.975 3.456c0.106 0 0.244 0.169 0.275 0.413h-0.525c0.019-0.244 0.144-0.413 0.25-0.413zM15.7 4.181h0.538v1.106h-0.537v-1.106zM13.869 22.488v-1.106h0.431v0.156c-0.063 0.325-0.137 0.644-0.213 0.95h-0.219zM14.469 22.794h0.95l-1.294 0.813c0.075-0.275 0.156-0.538 0.213-0.813h0.131zM12.625 26.944v-0.188h0.075c-0.025 0.063-0.056 0.125-0.075 0.188zM11.844 28.219v-1.462h0.463v0.925c-0.075 0.188-0.169 0.369-0.244 0.556h-0.213v-0.019zM12.475 28.544h1.213l-1.694 0.613c0.094-0.212 0.2-0.413 0.294-0.613h0.188z"></path>
</symbol>
<symbol id="icon-flame-towers" viewBox="0 0 32 32">
<path d="M31.419 12.738c-0.337-2.306-0.631-4.3-0.306-7.2 0.012-0.075-0.019-0.15-0.075-0.206s-0.131-0.081-0.206-0.063c-5.469 0.825-5.944 4.131-6.725 9.606-0.512 3.6-1.15 8.050-3.281 13.613 0.731-7.4 0.038-10.925-0.762-14.975-0.425-2.138-0.863-4.344-1.15-7.362-0.125-1.356-2.075-3.563-3.444-3.563-0.025 0-0.044 0.006-0.069 0.013-1.256 0.356-2.063 1.362-2.106 2.625-0.106 2.938-0.581 5.675-1.081 8.569-0.731 4.181-1.55 8.931-1.319 15.125h-0.025c-1.3-3-1.581-6.363-1.85-9.606-0.475-5.675-0.919-11.037-7.106-12.45-0.081-0.019-0.156 0-0.219 0.056-0.056 0.050-0.087 0.125-0.081 0.2 0.181 2.7-0.206 4.556-0.662 6.706-0.706 3.344-1.5 7.138-0.456 15.375 0.013 0.125 0.119 0.219 0.244 0.219h30.075c0.119 0 0.219-0.087 0.244-0.206 1.494-8.831 0.894-12.894 0.363-16.475v0zM0.944 16.469h4.787c0.056 0.569 0.094 1.15 0.125 1.738h-5.156c0.075-0.619 0.15-1.194 0.244-1.738v0zM1.375 14.238h4.037c0.106 0.569 0.2 1.15 0.269 1.738h-4.65c0.113-0.606 0.225-1.181 0.344-1.738v0zM1.819 12.006h3c0.2 0.569 0.356 1.15 0.487 1.738h-3.831c0.125-0.588 0.244-1.162 0.344-1.738v0zM7.825 13.744h-2.006c-0.125-0.594-0.281-1.169-0.475-1.738h1.956c0.219 0.55 0.381 1.131 0.525 1.738v0zM5.981 22.663h-5.481c-0.013-0.613 0-1.194 0.012-1.738h5.431c0 0.081 0.025 1.238 0.037 1.738v0zM0.506 23.156h5.487c0.019 0.575 0.050 1.156 0.081 1.738h-5.5c-0.031-0.606-0.056-1.188-0.069-1.738v0zM6.494 23.156h2.438c0.081 0.581 0.175 1.163 0.275 1.738h-2.631c-0.037-0.581-0.063-1.156-0.081-1.738v0zM6.481 22.663c-0.013-0.506-0.044-1.663-0.044-1.738h2.25c0.056 0.581 0.113 1.156 0.181 1.738h-2.388zM8.488 18.7c0.019 0.219 0.037 0.431 0.056 0.656 0.031 0.356 0.056 0.725 0.094 1.081h-2.213c-0.013-0.587-0.031-1.163-0.056-1.738h2.119zM6.344 18.206c-0.031-0.587-0.069-1.169-0.125-1.738h2.050c0.063 0.569 0.125 1.15 0.175 1.738h-2.1zM6.175 15.975c-0.063-0.588-0.15-1.169-0.256-1.738h2.019c0.113 0.563 0.2 1.144 0.281 1.738h-2.044zM5.875 18.7c0.025 0.575 0.037 1.15 0.056 1.738h-5.406c0.031-0.613 0.069-1.194 0.125-1.738h5.225zM0.613 25.387h5.506c0.044 0.581 0.1 1.156 0.175 1.738h-5.531c-0.056-0.606-0.106-1.181-0.15-1.738zM6.612 25.387h2.681c0.119 0.587 0.269 1.169 0.438 1.738h-2.944c-0.075-0.575-0.131-1.156-0.175-1.738v0zM7.106 11.519h-1.938c-0.506-1.35-1.225-2.637-2.256-3.856 2.15 0.75 3.413 2.106 4.194 3.856zM2.131 7.519c1.163 1.244 1.956 2.587 2.506 4h-2.731c0.194-1.213 0.3-2.475 0.225-4v0zM0.813 27.619h5.55c0.063 0.431 0.138 0.869 0.225 1.3h-5.631c-0.050-0.45-0.1-0.875-0.144-1.3v0zM7.094 28.919c-0.088-0.431-0.169-0.869-0.231-1.3h3.019c0.144 0.438 0.294 0.869 0.475 1.3h-3.263zM11.662 20.925h4.344c0.038 0.569 0.069 1.144 0.1 1.738h-4.6c0.050-0.587 0.1-1.169 0.156-1.738v0zM11.938 18.7h3.906c0.044 0.569 0.088 1.15 0.131 1.738h-4.263c0.075-0.594 0.144-1.169 0.225-1.738v0zM12.275 16.469h3.375c0.056 0.569 0.106 1.15 0.15 1.738h-3.8c0.088-0.587 0.181-1.169 0.275-1.738v0zM12.65 14.238h2.787c0.012 0.106 0.119 1.262 0.169 1.738h-3.25c0.094-0.581 0.194-1.162 0.294-1.738v0zM13.031 12.006h2.194c0.050 0.575 0.106 1.156 0.162 1.738h-2.656c0.106-0.581 0.206-1.162 0.3-1.738v0zM13.381 9.781h1.669c0.037 0.581 0.088 1.156 0.144 1.738h-2.075c0.088-0.581 0.175-1.162 0.262-1.738zM14.85 5.319c0.006 0.588 0.025 1.162 0.050 1.737h-1.213c0.050-0.569 0.088-1.15 0.106-1.737h1.056zM13.644 7.55h1.262c0.025 0.587 0.063 1.163 0.106 1.737h-1.569c0.081-0.575 0.15-1.156 0.2-1.737v0zM18.813 9.287h-3.306c-0.037-0.575-0.081-1.15-0.106-1.737h3.175c0.075 0.606 0.156 1.188 0.238 1.737v0zM19.188 11.519h-3.512c-0.050-0.581-0.1-1.156-0.144-1.738h3.35c0.106 0.6 0.206 1.181 0.306 1.738v0zM20.044 15.975h-3.95c-0.044-0.494-0.156-1.644-0.169-1.738h3.788c0.119 0.581 0.231 1.156 0.331 1.738zM20.587 24.894h-3.9c-0.019-0.594-0.038-1.169-0.063-1.738h4.031c-0.006 0.55-0.019 1.131-0.044 1.744-0.012 0-0.019-0.006-0.025-0.006v0zM20.619 20.925c0.025 0.55 0.038 1.131 0.038 1.738h-4.056c-0.031-0.594-0.063-1.169-0.1-1.738h4.119zM16.469 20.438c-0.038-0.594-0.081-1.169-0.131-1.738h4.1c0.056 0.556 0.106 1.131 0.15 1.738h-4.119zM16.294 18.206c-0.050-0.594-0.106-1.169-0.15-1.738h3.988c0.094 0.569 0.181 1.144 0.256 1.738h-4.094zM11.481 23.156h4.65c0.025 0.569 0.050 1.144 0.069 1.738h-4.806c0.019-0.594 0.044-1.169 0.088-1.738v0zM11.375 25.387h4.831c0.012 0.569 0.025 1.144 0.031 1.738h-4.881c0-0.594 0.006-1.169 0.019-1.738v0zM16.7 25.387h3.881c-0.031 0.55-0.069 1.131-0.119 1.738h-3.731c-0.006-0.587-0.012-1.169-0.031-1.738v0zM20.425 27.619c-0.038 0.419-0.081 0.856-0.125 1.3h-3.563c0.006-0.444 0.006-0.875 0-1.3h3.688zM19.619 13.744h-3.738c-0.056-0.581-0.106-1.162-0.162-1.738h3.556c0.106 0.544 0.206 1.075 0.313 1.6 0.012 0.050 0.025 0.094 0.031 0.137v0zM18.525 7.056h-3.131c-0.019-0.575-0.044-1.15-0.050-1.737h2.787c0.169 0.313 0.281 0.619 0.306 0.881 0.025 0.294 0.056 0.575 0.087 0.856v0zM17.825 4.825h-2.456c0.056-0.456 0.181-0.894 0.287-1.237 0.056-0.181 0.1-0.337 0.125-0.469 0.688 0.188 1.5 0.925 2.044 1.706v0zM15.262 3.175c-0.025 0.081-0.050 0.175-0.081 0.269-0.113 0.375-0.25 0.856-0.306 1.381h-1.019c0.156-0.75 0.669-1.344 1.406-1.65v0zM11.369 27.619h4.875v1.3h-4.838c-0.019-0.438-0.031-0.875-0.037-1.3v0zM30.887 27.125h-4.738c0.106-0.569 0.181-1.15 0.25-1.738h4.719c-0.069 0.556-0.137 1.131-0.231 1.738v0zM22.425 25.387h3.475c-0.069 0.587-0.15 1.169-0.256 1.738h-3.788c0.206-0.587 0.394-1.169 0.569-1.738v0zM23.063 23.156h3.050c-0.038 0.581-0.087 1.163-0.15 1.738h-3.381c0.175-0.594 0.331-1.169 0.481-1.738v0zM23.587 20.925h2.644c-0.025 0.575-0.056 1.156-0.094 1.738h-2.95c0.144-0.594 0.281-1.169 0.4-1.738v0zM24.025 18.7h2.306c-0.019 0.45-0.038 1.594-0.081 1.738h-2.563c0.125-0.6 0.238-1.175 0.337-1.738v0zM24.381 16.469h2.087c-0.044 0.575-0.081 1.156-0.113 1.738h-2.25c0.1-0.594 0.194-1.175 0.275-1.738v0zM24.606 14.95c0.038-0.244 0.069-0.475 0.106-0.706h1.994c-0.081 0.575-0.137 1.156-0.194 1.738h-2.050c0.044-0.356 0.094-0.7 0.144-1.031v0zM25.056 12.006h2.044c-0.131 0.569-0.244 1.15-0.331 1.738h-2c0.1-0.613 0.188-1.194 0.288-1.738v0zM25.6 9.781h2.15c-0.206 0.569-0.387 1.15-0.538 1.738h-2.063c0.131-0.631 0.275-1.213 0.45-1.738v0zM31.488 20.438h-4.744c-0.038-0.156 0.056-1.281 0.081-1.738h4.669c0.019 0.544 0.012 1.125-0.006 1.738v0zM31.481 20.931c-0.019 0.544-0.056 1.131-0.1 1.738h-4.75c0.038-0.581 0.063-1.163 0.087-1.738h4.762zM26.85 18.206c0.031-0.587 0.069-1.163 0.106-1.738h4.425c0.044 0.544 0.081 1.125 0.1 1.738h-4.631zM26.994 15.975c0.050-0.588 0.113-1.169 0.188-1.738h3.95c0.075 0.55 0.144 1.125 0.2 1.738h-4.337zM27.262 13.744c0.087-0.594 0.2-1.169 0.337-1.738h3.231c0.038 0.269 0.081 0.531 0.119 0.8 0.044 0.306 0.087 0.619 0.131 0.938h-3.819zM30.525 9.287h-2.056c0.519-1.213 1.2-2.35 2.119-3.412-0.119 1.275-0.125 2.375-0.063 3.412v0zM30.563 9.781c0.050 0.588 0.113 1.162 0.194 1.738h-3.044c0.15-0.594 0.337-1.169 0.55-1.738h2.3zM26.456 24.894c0.056-0.575 0.106-1.156 0.15-1.738h4.744c-0.044 0.55-0.106 1.131-0.175 1.738h-4.719zM29.887 5.956c-0.831 1.038-1.462 2.156-1.944 3.331h-2.163c0.7-1.713 1.85-2.794 4.106-3.331v0zM21.688 27.619h3.863c-0.087 0.438-0.188 0.875-0.306 1.3h-4.044c0.175-0.438 0.331-0.869 0.488-1.3v0zM25.75 28.919c0.113-0.431 0.212-0.863 0.3-1.3h4.762c-0.063 0.425-0.125 0.85-0.2 1.3h-4.863z"></path>
</symbol>
<symbol id="icon-israel" viewBox="0 0 32 32">
<path d="M29.419 0c-0.813 0-1.575 0.381-2.063 1.031h-2.581v-0.512c0-0.138-0.056-0.269-0.15-0.362s-0.225-0.15-0.363-0.15h-3.094c-0.288 0-0.519 0.231-0.519 0.519v0.519h-9.294v-0.525c0-0.138-0.056-0.269-0.15-0.362s-0.231-0.156-0.369-0.156h-3.094c-0.287 0-0.519 0.231-0.519 0.519v0.519h-2.581c-0.487-0.656-1.25-1.038-2.063-1.038-0.925 0-1.775 0.494-2.237 1.288-0.463 0.8-0.463 1.781 0 2.581s1.313 1.287 2.237 1.287c0.813 0 1.575-0.381 2.063-1.031h2.581v0.519c0 0.138 0.056 0.269 0.15 0.362s0.225 0.15 0.362 0.15v1.031h-2.063c-0.287 0-0.519 0.231-0.519 0.519v14.45c0 2.875 1.144 5.631 3.175 7.663 2.037 2.038 4.794 3.181 7.669 3.181s5.631-1.144 7.663-3.175c2.031-2.031 3.175-4.787 3.175-7.662v-14.45c0-0.138-0.056-0.269-0.15-0.362s-0.225-0.15-0.363-0.15h-2.063v-1.038c0.137 0 0.269-0.056 0.363-0.15s0.15-0.225 0.15-0.362v-0.519h2.581c0.488 0.65 1.25 1.031 2.063 1.031 0.925 0 1.775-0.494 2.238-1.288 0.463-0.8 0.463-1.781 0-2.581s-1.313-1.294-2.238-1.294zM21.675 1.031h2.063v3.094h-2.063v-3.094zM22.844 24.775h-13.688c-0.594-1.113-0.9-2.356-0.9-3.613v-9.806h15.481v9.806c0.006 1.256-0.3 2.5-0.894 3.613v0zM22.194 25.806c-1.456 1.962-3.75 3.119-6.194 3.119s-4.738-1.156-6.194-3.119h12.388zM23.744 7.225v3.094h-15.488v-3.094h15.488zM21.163 6.194h-10.325v-1.031c0.137 0 0.269-0.056 0.363-0.15s0.15-0.225 0.15-0.362v-0.519h9.287v0.519c0 0.138 0.056 0.269 0.15 0.362s0.225 0.15 0.363 0.15v1.031zM20.644 2.063v1.031h-9.287v-1.031h9.287zM8.256 1.031h2.063v3.094h-2.063v-3.094zM2.581 4.131c-0.413 0-0.806-0.163-1.094-0.456s-0.456-0.681-0.456-1.094 0.163-0.806 0.456-1.094 0.681-0.456 1.094-0.456c0.413 0 0.806 0.163 1.094 0.456s0.456 0.681 0.456 1.094-0.163 0.806-0.456 1.094-0.681 0.456-1.094 0.456zM5.112 3.094c0.031-0.169 0.050-0.344 0.050-0.519s-0.019-0.344-0.050-0.519h2.119v1.031h-2.119zM8.775 5.162h1.031v1.031h-1.031v-1.031zM25.806 21.163c0 2.6-1.031 5.094-2.875 6.931-1.837 1.837-4.331 2.875-6.931 2.875s-5.094-1.031-6.931-2.875c-1.838-1.837-2.875-4.331-2.875-6.931v-13.938h1.031v13.938c0 3.137 1.675 6.031 4.387 7.6s6.063 1.569 8.775 0c2.712-1.569 4.387-4.462 4.387-7.6v-13.938h1.031v13.938zM23.225 6.194h-1.031v-1.031h1.031v1.031zM24.775 3.094v-1.031h2.119c-0.031 0.169-0.050 0.344-0.050 0.519s0.019 0.344 0.050 0.519h-2.119zM29.419 4.131c-0.413 0-0.806-0.163-1.094-0.456s-0.456-0.681-0.456-1.094 0.163-0.806 0.456-1.094c0.288-0.288 0.681-0.456 1.094-0.456s0.806 0.163 1.094 0.456c0.288 0.288 0.456 0.681 0.456 1.094s-0.163 0.806-0.456 1.094c-0.288 0.294-0.681 0.456-1.094 0.456z"></path>
<path d="M21.4 15.188c-0.094-0.175-0.281-0.281-0.475-0.281h-2.969l-1.488-2.469c-0.1-0.169-0.275-0.269-0.469-0.269s-0.369 0.1-0.469 0.269l-1.481 2.469h-2.969c-0.194 0-0.375 0.106-0.475 0.275s-0.094 0.381 0.006 0.55l1.469 2.456-1.469 2.456c-0.1 0.169-0.1 0.381-0.006 0.55 0.1 0.169 0.281 0.275 0.475 0.275h2.969l1.481 2.469c0.1 0.169 0.275 0.269 0.469 0.269s0.369-0.1 0.469-0.269l1.481-2.469h2.969c0.194 0 0.375-0.106 0.475-0.275s0.094-0.381-0.006-0.55l-1.469-2.456 1.469-2.456c0.106-0.169 0.106-0.375 0.012-0.544v0zM16 13.781l0.675 1.125h-1.344l0.669-1.125zM17.331 16l1.313 2.188-1.313 2.188h-2.656l-1.313-2.188 1.313-2.188h2.656zM12.044 16h1.344l-0.675 1.125-0.669-1.125zM12.044 20.375l0.675-1.125 0.675 1.125h-1.35zM16 22.594l-0.675-1.125h1.344l-0.669 1.125zM19.956 20.375h-1.344l0.675-1.125 0.669 1.125zM19.281 17.125l-0.675-1.125h1.344l-0.669 1.125z"></path>
</symbol>
<symbol id="icon-italy" viewBox="0 0 32 32">
<path d="M19.831 24.563l1.375 0.294 1.169-5.506-11.012-2.344-1.169 5.506 1.375 0.294 0.819-3.856c0.094-0.456 0.544-0.75 1-0.65s0.75 0.544 0.65 1l-0.819 3.856 1.65 0.35 0.819-3.856c0.044-0.219 0.181-0.413 0.369-0.531 0.188-0.125 0.419-0.163 0.637-0.119s0.413 0.181 0.531 0.369c0.125 0.188 0.163 0.419 0.119 0.637l-0.819 3.856 1.65 0.35 0.819-3.856c0.1-0.456 0.544-0.75 1-0.65 0.456 0.094 0.75 0.544 0.65 1l-0.813 3.856z"></path>
<path d="M11.775 15.081l1.375 0.294 0.819-3.856c0.044-0.219 0.181-0.412 0.369-0.531 0.188-0.125 0.419-0.162 0.637-0.119s0.412 0.181 0.531 0.369c0.125 0.188 0.162 0.419 0.119 0.637l-0.819 3.856 1.65 0.35 0.819-3.856c0.1-0.456 0.544-0.744 1-0.644 0.456 0.094 0.744 0.544 0.65 0.994l-0.819 3.856 1.65 0.35 0.819-3.856c0.094-0.456 0.544-0.75 1-0.65s0.75 0.544 0.65 1l-0.813 3.85 1.375 0.294 1.169-5.506-11.012-2.344-1.169 5.513z"></path>
<path d="M13.356 7.644l1.375 0.294 0.819-3.856c0.1-0.456 0.544-0.75 1-0.65s0.75 0.544 0.65 1l-0.819 3.856 1.65 0.35 0.819-3.856c0.044-0.219 0.175-0.412 0.363-0.537s0.419-0.169 0.637-0.119c0.219 0.044 0.413 0.181 0.531 0.369 0.125 0.188 0.163 0.419 0.119 0.638l-0.813 3.856 1.65 0.35 0.819-3.856c0.044-0.219 0.181-0.412 0.369-0.531 0.188-0.125 0.419-0.162 0.637-0.119s0.413 0.181 0.531 0.369c0.125 0.188 0.163 0.419 0.119 0.638l-0.819 3.856 1.375 0.294 1.169-5.506-11.012-2.344-1.169 5.506z"></path>
<path d="M22.231 31.438h-1.556l0.894-4.206-12.662-2.694-1.469 6.9h-1.813c-0.156 0-0.281 0.125-0.281 0.281s0.125 0.281 0.281 0.281h16.606c0.156 0 0.281-0.125 0.281-0.281s-0.125-0.281-0.281-0.281v0zM17.894 27.6c0.475 0.1 0.887 0.387 1.156 0.794 0.262 0.406 0.356 0.9 0.256 1.375l-0.356 1.669h-3.744l0.519-2.425c0.1-0.475 0.388-0.887 0.794-1.156 0.4-0.262 0.9-0.356 1.375-0.256v0zM9.938 27.781c0.1-0.475 0.387-0.887 0.794-1.156 0.406-0.262 0.9-0.356 1.375-0.256s0.887 0.387 1.156 0.794c0.262 0.406 0.356 0.9 0.256 1.375l-0.613 2.894h-3.744l0.775-3.65z"></path>
<path d="M8.194 23.813l0.231-1.1 14.319 3.044-0.231 1.1-14.319-3.044z"></path>
<path d="M10.656 16.281l0.175-0.825 12.669 2.688-0.175 0.825-12.669-2.688z"></path>
<path d="M12.238 8.844l0.175-0.825 12.669 2.694-0.175 0.825-12.669-2.694z"></path>
<path d="M23.906 2.694l0.25-1.169-7.163-1.525-0.25 1.169-2.756-0.588-0.175 0.825 12.669 2.694 0.175-0.825-2.75-0.581z"></path>
</symbol>
<symbol id="icon-moscow-kremlin" viewBox="0 0 32 32">
<path d="M21.1 27.619v4.381h6.938v-6.45l-0.744 0.6-0.744-0.6v2.069h-2.344v-2.069l-0.744 0.6-0.744-0.6v2.069h-1.619z"></path>
<path d="M15.963 19.244c-0.456 0.012-0.894 0.2-1.213 0.525s-0.494 0.769-0.494 1.225c0 0.625 0.331 1.194 0.869 1.506s1.2 0.313 1.744 0c0.538-0.313 0.869-0.887 0.869-1.506 0.006-0.469-0.181-0.925-0.519-1.25-0.331-0.325-0.788-0.506-1.256-0.5v0zM15.994 20.006c0.056 0 0.106 0.019 0.15 0.056 0.038 0.038 0.063 0.094 0.063 0.144v0.675l0.587 0.337c0.094 0.063 0.119 0.181 0.063 0.275s-0.175 0.131-0.269 0.081l-0.787-0.456v-0.913c-0.006-0.113 0.081-0.2 0.194-0.2v0z"></path>
<path d="M12.856 18.256v5.481h6.287v-5.481h-6.287zM15.956 18.831c0.581-0.012 1.144 0.212 1.556 0.619s0.644 0.969 0.637 1.55c0 0.769-0.413 1.481-1.075 1.863-0.669 0.381-1.488 0.381-2.15 0s-1.075-1.094-1.075-1.863c-0.006-0.569 0.213-1.113 0.606-1.519s0.931-0.637 1.5-0.65v0z"></path>
<path d="M14.731 0.925c-0.031 0-0.056 0.019-0.063 0.044s0 0.056 0.025 0.075l0.756 0.531-0.313 0.869c-0.012 0.025 0 0.056 0.025 0.075s0.056 0.019 0.081 0l0.763-0.531 0.762 0.531c0.025 0.019 0.056 0.019 0.081 0s0.031-0.050 0.025-0.075l-0.313-0.869 0.756-0.531c0.025-0.019 0.031-0.050 0.025-0.075s-0.038-0.044-0.063-0.044h-0.919l-0.275-0.881c-0.012-0.025-0.038-0.044-0.063-0.044-0.031 0-0.056 0.019-0.063 0.044l-0.275 0.881h-0.956z"></path>
<path d="M20.688 24.15v7.85h-2.706v-2.644c0-0.706-0.381-1.363-0.994-1.719s-1.369-0.356-1.988 0c-0.613 0.356-0.994 1.012-0.994 1.719v2.644h-2.694v-7.85h9.375z"></path>
<path d="M14.425 32h3.15v-2.644c0-0.563-0.3-1.081-0.788-1.363s-1.088-0.281-1.575 0c-0.488 0.281-0.787 0.8-0.787 1.363v2.644z"></path>
<path d="M10.9 27.619v4.381h-6.938v-6.45l0.744 0.6 0.744-0.6v2.069h2.344v-2.069l0.744 0.6 0.744-0.6v2.069h1.619z"></path>
<path d="M14.731 15.475h-1.056v-4.412h1.056v4.412z"></path>
<path d="M16.863 15.475v-4.412h-1.719v4.412h1.719z"></path>
<path d="M18.325 15.475v-4.412h-1.056v4.412h1.056z"></path>
<path d="M13.675 15.887h4.644v1.962h-4.644v-1.963z"></path>
<path d="M16 3.1l-1.494 7.556h2.987l-1.494-7.556z"></path>
</symbol>
</defs>
</svg>
