<?xml version="1.0" encoding="utf-8"?>
<!-- Generator: Adobe Illustrator 23.0.0, SVG Export Plug-In . SVG Version: 6.00 Build 0)  -->
<svg version="1.1" id="Layer_1" xmlns="http://www.w3.org/2000/svg" xmlns:xlink="http://www.w3.org/1999/xlink" x="0px" y="0px"
	 viewBox="0 0 157 42" style="enable-background:new 0 0 157 42;" xml:space="preserve">
<style type="text/css">
	.st0{fill:#FFFFFF;stroke:#FFFFFF;stroke-width:4;stroke-miterlimit:10;}
	.st1{fill:#FFFFFF;}
	.st2{fill-rule:evenodd;clip-rule:evenodd;fill:#FFFFFF;}
</style>
<line class="st0" x1="38" y1="39" x2="156" y2="39"/>
<g>
	<path class="st1" d="M53.3,13.7v3.6c0,4.4-2.1,6.9-6.5,6.9h-2.1v10.4h-4.4V6.9h6.4C51.2,6.9,53.3,9.3,53.3,13.7z M44.8,10.8v9.4
		h2.1c1.4,0,2.1-0.6,2.1-2.6v-4.2c0-2-0.8-2.6-2.1-2.6H44.8z"/>
	<path class="st1" d="M55.4,6.9h4.4v27.8h-4.4V6.9z M59.4,1.6v3.8h-3.8V1.6H59.4z"/>
	<path class="st1" d="M72,34.7c-0.2-0.7-0.4-1.2-0.4-3.4v-4.4c0-2.6-0.9-3.5-2.9-3.5h-1.5v11.3h-4.4V6.9h6.6C74,6.9,76,9,76,13.3
		v2.2c0,2.9-0.9,4.7-2.9,5.6v0.1c2.2,0.9,2.9,3,2.9,5.9v4.3c0,1.4,0,2.3,0.5,3.4H72z M67.3,10.8v8.5H69c1.6,0,2.6-0.7,2.6-2.9v-2.7
		c0-2-0.7-2.9-2.2-2.9H67.3z"/>
	<path class="st1" d="M93,34.7h-4.4l-0.8-5h-5.4l-0.8,5h-4l4.4-27.8h6.4L93,34.7z M83,25.8h4.2l-2.1-14.1h-0.1L83,25.8z"/>
	<path class="st1" d="M104.2,26.6L104.2,26.6l3-19.7h6.1v27.8h-4.1V14.7h-0.1l-2.9,19.9H102L98.9,15h-0.1v19.7H95V6.9h6.1
		L104.2,26.6z"/>
	<path class="st1" d="M116.5,6.9h4.4v27.8h-4.4V6.9z M120.6,1.6v3.8h-3.8V1.6H120.6z"/>
	<path class="st1" d="M124,6.9h6.9c4.4,0,6.5,2.4,6.5,6.9v14.1c0,4.4-2.1,6.9-6.5,6.9H124V6.9z M128.4,10.8v19.9h2.5
		c1.4,0,2.2-0.7,2.2-2.7V13.5c0-2-0.8-2.7-2.2-2.7H128.4z"/>
	<path class="st1" d="M154.3,34.7h-4.4l-0.8-5h-5.4l-0.8,5h-4l4.4-27.8h6.4L154.3,34.7z M144.4,25.8h4.2l-2.1-14.1h-0.1L144.4,25.8z
		"/>
</g>
<g>
	<polygon class="st2" points="19.1,3.9 19.3,38.8 2.4,27 	"/>
	<polygon class="st2" points="34.1,23.8 19.5,34.2 19.5,32.6 	"/>
	<polygon class="st2" points="32.4,21.5 19.5,30.6 19.5,28.5 	"/>
	<polygon class="st2" points="30.3,18.8 19.5,26.3 19.5,24.7 	"/>
	<polygon class="st2" points="28,15.7 19.6,21.7 19.6,20.5 	"/>
	<polygon class="st2" points="26,12.6 19.6,17.1 19.6,15.9 	"/>
	<polygon class="st2" points="24,9.8 19.5,12.9 19.5,11.7 	"/>
	<polygon class="st2" points="21.8,6.9 19.5,8.3 19.5,7.4 	"/>
	<polygon class="st2" points="20.2,4.6 19.5,5 19.5,4.7 	"/>
	<polygon class="st2" points="36.4,27 19.5,38.8 19.5,36.7 	"/>
</g>
</svg>
