<?xml version="1.0" standalone="no"?>
<!DOCTYPE svg PUBLIC "-//W3C//DTD SVG 20010904//EN"
 "http://www.w3.org/TR/2001/REC-SVG-20010904/DTD/svg10.dtd">
<svg version="1.0" xmlns="http://www.w3.org/2000/svg"
 width="271.000000pt" height="271.000000pt" viewBox="0 0 271.000000 271.000000"
 preserveAspectRatio="xMidYMid meet">
<metadata>
Created by potrace 1.14, written by Peter Selinger 2001-2017
</metadata>
<g transform="translate(0.000000,271.000000) scale(0.100000,-0.100000)"
fill="#000000" stroke="none">
<path d="M1330 2623 c0 -15 -56 -74 -64 -66 -4 4 -5 1 -2 -7 4 -9 -9 -31 -28
-52 -19 -21 -33 -38 -30 -38 2 0 -3 -11 -12 -25 -9 -14 -21 -25 -26 -25 -6 0
-4 8 3 18 13 15 12 16 -2 4 -10 -7 -15 -21 -12 -32 3 -11 1 -20 -4 -20 -5 0
-15 -12 -21 -26 -7 -14 -17 -22 -22 -19 -5 3 -8 0 -5 -7 6 -18 -32 -61 -46
-52 -8 4 -9 3 -5 -4 8 -13 -6 -42 -31 -68 -10 -10 -18 -20 -18 -23 0 -8 -44
-71 -64 -93 -30 -32 -41 -47 -41 -55 0 -5 -13 -23 -29 -41 -17 -17 -27 -32
-23 -32 4 -1 -3 -9 -16 -20 -13 -10 -23 -23 -24 -27 -1 -16 -25 -43 -31 -36
-4 3 -7 -2 -7 -11 0 -10 -16 -37 -35 -60 -19 -24 -35 -46 -35 -51 0 -9 -60
-87 -75 -97 -5 -4 -10 -11 -10 -15 0 -4 -9 -18 -20 -30 -15 -18 -22 -20 -34
-10 -14 10 -14 10 -3 -5 15 -19 7 -42 -10 -32 -6 4 -8 2 -4 -4 3 -6 2 -13 -4
-17 -6 -4 -8 -10 -5 -15 3 -4 -2 -11 -11 -14 -8 -3 -13 -10 -10 -15 4 -5 -8
-21 -24 -35 -17 -14 -30 -28 -30 -31 1 -20 -2 -25 -16 -25 -8 0 -13 -4 -9 -9
3 -6 -3 -14 -12 -20 -10 -6 -14 -11 -9 -11 5 0 1 -9 -9 -20 -10 -11 -22 -17
-26 -14 -5 3 -6 -2 -3 -10 4 -11 0 -16 -12 -16 -14 0 -15 -3 -6 -8 9 -6 3 -20
-25 -55 -27 -33 -41 -43 -49 -36 -8 7 -14 6 -19 -1 -4 -6 -1 -9 7 -8 7 2 13
-4 13 -12 0 -8 -8 -15 -17 -15 -10 0 -23 -6 -30 -13 -8 -8 -8 -12 -1 -12 6 0
13 5 15 12 3 9 6 9 12 0 4 -7 2 -12 -3 -12 -6 0 -11 -4 -11 -10 0 -9 -19 -35
-46 -64 -6 -6 -16 -21 -23 -33 -7 -15 -17 -20 -29 -17 -14 5 -14 4 -2 -4 12
-9 12 -14 -5 -32 -19 -21 -19 -21 8 -45 14 -14 30 -25 34 -25 4 0 26 -16 47
-35 21 -19 44 -32 49 -28 6 4 8 0 4 -10 -4 -11 -2 -14 9 -10 7 3 14 0 14 -6 0
-6 3 -10 8 -9 9 4 11 -12 4 -30 -2 -7 0 -18 6 -24 8 -8 9 -5 6 9 -4 13 0 22
10 26 19 8 31 -10 18 -26 -7 -8 -5 -16 5 -26 13 -12 14 -11 9 7 -4 11 -2 23 4
27 9 6 14 -9 13 -42 0 -7 12 -10 32 -7 23 3 37 -1 46 -14 13 -15 12 -16 -4 -3
-15 12 -17 12 -12 -2 4 -8 15 -17 26 -20 11 -3 16 -1 13 5 -3 5 3 4 15 -4 12
-7 21 -20 21 -29 0 -23 11 -30 27 -18 10 9 13 8 13 0 0 -7 4 -10 9 -6 6 3 13
-1 18 -8 4 -7 16 -16 26 -20 17 -6 17 -8 1 -34 l-18 -28 23 23 c17 17 26 20
31 12 4 -6 11 -12 16 -12 15 -2 64 -41 64 -51 0 -6 -9 -2 -19 7 -15 14 -21 15
-27 4 -4 -7 -3 -10 1 -5 5 4 16 0 26 -9 10 -9 19 -11 23 -5 8 13 86 -38 86
-56 0 -8 4 -12 10 -8 10 6 50 -15 50 -28 0 -4 -4 -6 -9 -3 -11 7 -8 -21 4 -31
4 -4 5 -2 1 5 -13 23 26 27 44 4 10 -12 21 -18 26 -14 5 4 3 0 -4 -10 -9 -11
-10 -18 -2 -23 6 -3 8 -11 4 -16 -3 -5 -10 -6 -16 -3 -7 5 -8 2 -4 -5 6 -9 13
-8 27 5 20 18 26 29 10 19 -5 -3 -12 -1 -15 4 -3 5 0 11 8 14 8 3 17 -1 20 -9
3 -8 12 -14 20 -14 22 0 29 -19 15 -38 -12 -14 -10 -14 8 1 20 18 21 18 37 -5
9 -12 16 -19 16 -15 0 4 11 0 26 -9 14 -10 23 -23 20 -31 -3 -8 -1 -11 4 -8
14 9 51 -4 45 -16 -4 -5 -11 -9 -16 -9 -6 0 -7 5 -4 10 3 6 2 10 -3 10 -6 0
-13 -8 -16 -17 -4 -10 -4 -14 0 -11 4 4 16 3 27 -3 12 -7 17 -7 13 -1 -3 5 1
12 9 16 8 3 18 0 22 -7 5 -7 42 -35 83 -62 70 -46 102 -62 97 -47 -1 4 1 7 5
7 4 0 15 10 24 23 10 15 22 21 32 17 9 -3 13 -3 9 1 -8 8 42 54 59 54 7 0 15
7 18 16 5 13 9 14 20 5 11 -9 16 -9 22 0 4 8 3 9 -4 5 -7 -4 -12 -3 -12 1 0 5
15 17 33 28 17 10 34 21 37 24 17 20 91 62 99 56 7 -4 8 0 4 11 -4 11 -2 15 4
11 6 -4 14 0 17 9 3 9 13 14 21 10 8 -3 17 0 21 6 5 7 2 8 -7 3 -12 -8 -12 -6
-1 8 8 9 23 19 33 22 11 4 31 17 46 31 14 13 32 24 39 24 8 0 14 5 14 10 0 6
7 10 15 10 8 0 15 4 15 10 0 5 15 17 33 26 17 9 36 23 40 30 4 8 13 14 19 14
9 0 28 14 85 60 7 6 16 10 20 10 4 0 20 10 35 23 48 39 83 62 91 59 4 -1 7 3
7 9 0 6 7 8 16 5 8 -3 13 -2 9 3 -5 9 207 161 225 161 14 0 13 17 -2 26 -6 4
-8 3 -5 -3 8 -13 -20 -26 -35 -16 -6 3 -8 2 -5 -4 3 -5 -11 -19 -31 -30 -68
-37 -117 -65 -128 -74 -6 -5 -14 -6 -17 -2 -4 3 -7 0 -7 -7 0 -7 -3 -11 -6 -7
-3 3 -16 -3 -27 -14 -12 -11 -32 -22 -44 -25 -13 -4 -23 -11 -23 -16 0 -6 -12
-7 -27 -4 -19 4 -23 4 -14 -3 11 -7 10 -11 -6 -20 -11 -5 -23 -7 -27 -4 -3 3
-6 2 -6 -4 0 -5 -17 -18 -37 -29 -21 -10 -50 -27 -65 -37 -21 -14 -28 -15 -29
-5 0 7 -4 3 -9 -9 -10 -24 -34 -31 -45 -13 -8 13 -25 13 -25 -1 0 -5 4 -8 9
-4 23 13 18 -14 -4 -29 -14 -9 -25 -13 -25 -10 0 4 -8 0 -17 -8 -35 -29 -115
-69 -128 -64 -10 3 -12 0 -8 -11 5 -12 2 -15 -8 -11 -9 4 -20 -2 -27 -13 -7
-10 -21 -19 -31 -19 -11 0 -21 -4 -23 -8 -1 -4 -20 -18 -42 -30 -32 -19 -41
-20 -55 -10 -14 11 -14 11 -4 -2 10 -13 5 -19 -33 -39 -44 -24 -45 -24 -66 -5
-14 12 -18 13 -10 3 6 -9 8 -20 4 -24 -4 -5 -1 -5 6 -1 6 4 12 2 12 -4 0 -7
-6 -10 -13 -7 -7 3 -19 -3 -25 -13 -6 -10 -19 -17 -29 -16 -10 2 -21 -1 -24
-5 -3 -5 -5 29 -5 76 0 46 3 79 7 73 4 -6 6 -21 4 -34 -3 -27 10 -32 19 -9 3
8 1 15 -3 15 -20 0 -2 50 25 73 21 19 32 22 42 15 9 -8 11 -7 6 5 -3 10 3 20
18 28 13 6 40 25 60 41 21 17 43 26 49 22 7 -4 9 -3 5 4 -3 6 3 13 14 17 11 4
18 10 15 15 -9 14 27 21 44 8 14 -12 14 -11 2 4 -11 16 -9 20 25 40 22 13 43
22 47 20 5 -1 6 2 3 7 -9 14 20 21 35 8 11 -10 11 -9 1 4 -10 14 -8 19 13 33
14 9 31 14 37 10 7 -4 8 -3 4 4 -10 17 28 34 44 19 12 -10 12 -9 1 5 -11 15
-6 22 44 55 113 75 129 86 149 105 11 10 26 16 34 13 7 -2 10 0 7 5 -3 5 11
20 32 34 21 13 74 51 118 85 44 33 85 61 91 61 7 0 14 6 17 14 6 14 -82 -32
-145 -76 -16 -11 -28 -16 -28 -12 0 4 -6 0 -12 -9 -7 -9 -20 -17 -28 -19 -8
-2 -23 -11 -34 -21 -11 -10 -26 -15 -33 -13 -7 3 -15 0 -19 -6 -4 -7 -3 -8 4
-4 7 4 12 5 12 2 0 -2 -12 -11 -27 -19 -38 -19 -77 -42 -232 -136 -73 -44
-138 -78 -144 -74 -5 3 -7 2 -4 -4 8 -12 -71 -55 -85 -46 -6 3 -8 1 -5 -4 4
-6 0 -16 -8 -23 -8 -7 -15 -9 -15 -6 0 4 -7 0 -16 -8 -8 -9 -22 -16 -30 -16
-8 0 -14 -3 -14 -7 0 -5 -11 -13 -25 -19 -18 -9 -25 -9 -29 0 -2 6 -5 4 -5 -4
-1 -19 -51 -49 -70 -42 -8 3 -11 0 -7 -6 3 -6 2 -13 -3 -16 -5 -4 -8 2 -7 11
2 10 -2 21 -8 25 -7 5 -7 8 3 8 11 0 11 3 1 15 -7 8 -8 15 -3 15 5 0 10 7 10
15 0 8 -5 15 -11 15 -6 0 -5 4 2 9 8 4 14 12 15 17 1 5 9 7 17 5 8 -1 12 0 8
4 -10 10 94 85 107 77 6 -3 7 -2 3 3 -10 11 70 67 84 59 6 -4 8 -3 5 3 -9 14
19 37 34 27 7 -4 9 -3 6 3 -4 6 12 23 36 39 23 15 52 37 64 47 12 11 26 16 33
12 6 -3 9 -3 8 2 -2 4 1 9 6 10 5 1 12 6 15 11 7 11 99 82 106 82 2 0 16 11
31 25 16 15 34 23 43 20 8 -3 12 -3 9 1 -13 12 204 168 217 156 5 -4 5 -2 2 4
-3 6 8 18 24 28 17 10 28 20 25 23 -3 3 -24 -6 -48 -19 -136 -79 -180 -100
-191 -89 -6 6 -15 11 -21 11 -5 0 -1 -6 9 -14 18 -13 18 -14 -2 -24 -11 -6
-23 -8 -27 -5 -3 3 -6 2 -6 -4 0 -18 -31 -24 -49 -11 -14 11 -14 11 -3 -4 11
-14 6 -19 -45 -44 -32 -16 -63 -33 -70 -40 -6 -6 -26 -17 -45 -24 -18 -7 -40
-19 -48 -26 -8 -7 -22 -14 -30 -16 -8 -2 -17 -6 -20 -9 -11 -13 -120 -69 -120
-62 0 4 -4 3 -8 -3 -14 -22 -81 -54 -88 -42 -5 7 -2 8 7 3 8 -5 10 -4 6 0 -4
5 -14 10 -22 11 -11 2 -12 -2 -5 -16 12 -22 -11 -35 -30 -17 -10 10 -12 8 -7
-6 4 -11 3 -16 -3 -12 -6 3 -10 1 -10 -4 0 -6 -5 -11 -11 -11 -5 0 -7 5 -4 10
3 6 1 10 -6 10 -8 0 -8 4 2 16 10 13 10 17 -2 25 -8 5 -9 9 -4 9 6 0 11 9 12
20 1 13 -2 18 -9 14 -7 -4 -8 -2 -4 5 4 6 11 9 16 6 4 -3 13 2 20 10 10 12 16
13 28 3 12 -10 12 -7 -2 14 -17 25 -16 27 5 42 12 8 27 12 32 9 6 -3 7 -1 3 5
-7 11 26 35 38 27 3 -3 4 -2 1 1 -9 12 43 44 62 38 13 -4 15 -3 4 4 -9 7 -10
12 -2 16 6 4 11 4 11 -1 0 -4 7 3 16 15 13 19 18 21 32 10 13 -11 14 -11 8 0
-4 7 -2 19 4 27 15 18 34 20 24 3 -4 -7 -3 -8 5 -4 6 4 9 11 6 16 -3 5 4 11
15 15 11 3 20 11 20 17 0 5 7 8 15 4 8 -3 14 -1 12 3 -1 5 2 9 7 9 5 0 13 7
18 16 5 9 15 16 22 16 8 0 16 7 20 15 3 8 12 15 20 15 7 0 17 7 20 16 4 9 9
14 13 11 3 -4 14 3 24 15 11 11 19 17 19 13 0 -5 6 -1 13 10 9 11 19 15 27 10
8 -5 11 -4 7 2 -7 10 71 69 86 65 4 -1 7 3 7 9 0 5 5 7 12 3 6 -4 8 -3 5 3 -7
10 20 28 36 25 4 -1 7 5 7 14 0 11 5 14 17 10 10 -4 14 -4 10 0 -4 4 1 13 11
21 24 19 -45 -14 -80 -39 -16 -11 -33 -16 -39 -12 -7 4 -9 3 -6 -3 7 -11 -50
-40 -66 -35 -5 1 -6 -1 -4 -5 3 -5 -6 -13 -19 -20 -18 -8 -23 -8 -18 0 3 7 -1
4 -9 -5 -8 -10 -17 -15 -20 -11 -4 3 -7 2 -7 -4 0 -15 -99 -65 -112 -57 -6 4
-8 3 -4 -4 4 -6 -14 -21 -45 -36 -60 -31 -66 -32 -48 -8 13 15 12 16 -3 4 -10
-8 -14 -20 -11 -29 4 -10 2 -14 -5 -9 -6 3 -14 1 -17 -5 -4 -5 -14 -8 -22 -5
-8 3 -12 2 -9 -3 3 -5 -2 -12 -12 -16 -9 -3 -17 -5 -17 -3 0 2 -11 -7 -25 -20
-26 -24 -56 -31 -44 -10 4 8 3 10 -2 5 -5 -5 -9 -14 -9 -20 0 -7 -9 -11 -20
-9 -11 2 -30 4 -43 5 -14 0 -21 6 -18 13 3 8 -1 11 -10 7 -10 -4 -12 -9 -4
-18 5 -6 7 -14 4 -18 -8 -8 18 -3 33 6 16 10 26 -8 10 -20 -6 -5 -19 -9 -27
-8 -8 0 -20 -8 -26 -19 -7 -12 -13 -15 -18 -7 -4 6 -2 11 3 11 6 0 11 5 11 11
0 5 -4 8 -8 5 -11 -6 -9 34 1 51 4 6 4 13 0 16 -5 2 -3 2 4 1 7 -2 10 3 6 11
-3 8 -8 13 -12 10 -12 -7 -7 59 4 67 7 5 6 8 0 8 -6 0 -11 9 -12 20 -1 14 4
19 17 17 11 -2 23 -7 27 -12 5 -4 2 -5 -6 0 -10 6 -12 4 -6 -6 7 -11 5 -11
-10 1 -17 14 -18 14 -6 -8 6 -12 8 -28 4 -35 -13 -21 -12 -36 3 -30 10 3 12 0
8 -10 -7 -18 12 -32 22 -16 5 8 3 9 -6 4 -8 -5 -11 -3 -8 6 3 8 12 13 19 11 8
-2 10 0 6 5 -5 4 -13 9 -18 9 -5 1 -14 2 -20 3 -5 0 -7 6 -4 11 4 6 10 8 15 5
4 -3 6 3 3 14 -3 10 0 22 6 25 5 4 8 13 5 20 -6 15 42 50 56 41 6 -3 7 1 4 9
-3 9 -1 16 5 16 6 0 32 16 58 35 27 19 53 39 58 43 6 4 27 19 47 35 20 15 39
27 43 27 3 0 11 5 18 10 58 50 74 59 85 55 7 -3 11 -1 8 4 -7 11 18 33 27 24
4 -3 7 -2 7 4 0 12 81 69 93 65 4 -1 7 3 7 9 0 8 6 7 18 -2 15 -13 16 -12 4 3
-10 13 -10 17 0 21 8 4 7 6 -4 6 -10 1 -18 -2 -18 -6 0 -5 -19 -17 -43 -28
-23 -11 -48 -26 -55 -33 -8 -6 -18 -10 -23 -7 -5 4 -9 1 -9 -4 0 -6 -7 -11
-15 -11 -8 0 -15 -4 -15 -9 0 -5 -12 -8 -27 -5 -19 3 -24 1 -14 -5 17 -11 -3
-26 -21 -15 -7 4 -10 3 -5 -1 4 -5 -13 -21 -38 -37 -50 -31 -59 -34 -50 -15 4
6 -1 3 -10 -8 -9 -11 -21 -19 -26 -18 -5 2 -9 -2 -9 -8 0 -5 -4 -7 -10 -4 -5
3 -10 2 -10 -4 0 -5 -10 -13 -22 -17 -12 -3 -28 -13 -36 -20 -16 -17 -36 -8
-28 13 3 8 1 11 -4 8 -6 -3 -10 -1 -10 6 0 7 -3 10 -6 7 -3 -4 -1 -15 5 -27
12 -22 5 -30 -33 -33 -14 -1 -27 -6 -27 -10 -1 -4 -2 -13 -3 -20 0 -6 -8 -13
-16 -15 -12 -4 -12 -3 -1 5 11 8 11 10 0 15 -10 4 -10 6 -1 6 6 1 12 6 12 12
0 5 -5 7 -12 3 -7 -4 -8 -3 -4 5 4 6 11 9 15 7 4 -3 8 4 8 15 1 10 -3 19 -8
19 -6 0 -7 -4 -4 -10 3 -5 2 -10 -4 -10 -5 0 -9 9 -8 20 1 14 6 18 18 15 11
-4 18 1 22 15 3 11 11 20 17 20 9 0 9 -5 -1 -17 -13 -16 -12 -17 4 -4 12 9 15
17 8 24 -7 7 -15 6 -25 -2 -9 -7 -17 -8 -20 -2 -3 5 0 12 6 14 13 5 -1 21 -27
30 -5 3 -7 7 -3 11 3 4 16 2 28 -4 20 -11 21 -10 11 9 -9 16 -8 22 5 29 11 6
15 16 11 26 -4 9 -3 15 2 12 5 -3 11 1 15 9 3 8 11 15 18 15 9 0 9 -3 -2 -11
-10 -7 -11 -9 -2 -7 8 2 12 6 10 10 -5 9 34 48 49 48 7 0 13 4 13 8 0 4 12 15
28 24 15 9 40 28 56 42 17 13 33 23 37 20 4 -2 9 3 13 11 3 8 11 15 18 15 8 0
21 9 31 20 10 12 23 18 29 14 7 -5 8 -3 4 5 -5 8 0 14 13 18 12 3 21 9 21 13
0 5 9 12 20 15 22 7 28 27 8 23 -7 -2 -15 -5 -18 -8 -19 -19 -91 -49 -106 -44
-14 4 -15 3 -6 -4 11 -7 10 -10 -3 -16 -21 -8 -38 2 -29 16 4 6 2 8 -4 5 -5
-4 -8 -17 -4 -30 5 -20 4 -21 -12 -8 -9 8 -19 11 -23 7 -3 -3 -1 -6 7 -6 10 0
10 -3 0 -15 -13 -16 -35 -21 -25 -6 3 5 0 13 -6 17 -7 4 -9 3 -6 -3 4 -6 -1
-19 -9 -29 -9 -10 -13 -13 -9 -7 4 9 1 11 -9 7 -9 -3 -14 -10 -11 -14 3 -4 -2
-11 -11 -14 -11 -4 -15 -2 -11 7 3 8 -1 14 -8 14 -7 0 -10 -8 -7 -19 6 -26
-13 -22 -26 5 -10 21 -10 21 -9 -5 1 -15 0 -26 -3 -26 -3 1 -23 -10 -45 -24
l-40 -25 -1 38 c-1 31 3 39 15 37 9 -2 20 -7 24 -13 5 -5 5 1 1 15 -6 22 -5
23 9 11 9 -7 14 -18 10 -25 -4 -7 -1 -6 7 1 11 10 9 16 -13 34 -15 11 -25 25
-22 30 4 5 2 9 -4 9 -17 0 -22 -18 -6 -24 8 -3 12 -12 9 -20 -11 -28 -31 -5
-31 34 0 33 3 38 14 29 11 -9 12 -8 7 5 -3 9 -9 16 -13 16 -4 0 -8 41 -8 90 0
50 5 90 10 90 5 0 7 -6 4 -13 -3 -7 3 -13 13 -13 17 0 17 2 1 22 -9 12 -19 20
-23 18 -3 -2 -6 48 -7 111 0 63 4 115 9 115 5 0 7 -8 5 -18 -2 -10 1 -25 5
-33 7 -11 10 -10 16 4 9 25 61 51 67 34 3 -6 6 -1 6 12 1 13 4 22 7 18 3 -3
11 -1 18 4 6 5 22 18 35 29 l23 19 -31 -4 c-17 -2 -35 -6 -40 -9 -5 -4 -11 -1
-13 6 -3 8 -9 8 -24 -1 -16 -11 -16 -12 -1 -7 10 3 15 2 12 -3 -8 -13 -68 -11
-78 3 -5 7 -7 6 -6 -4 3 -29 -1 -41 -11 -35 -6 4 -8 10 -6 14 11 17 5 226 -6
237 -5 4 -8 3 -8 -3z m44 -892 c3 -4 0 -16 -8 -26 -11 -15 -13 -16 -13 -1 0 9
5 16 11 16 6 0 4 5 -4 10 -9 6 -10 10 -3 10 6 0 14 -4 17 -9z m11 -71 c-8 -9
-12 -20 -8 -24 4 -4 0 -4 -10 0 -21 8 -22 24 -2 24 8 0 15 4 15 10 0 5 -8 7
-17 4 -14 -5 -15 -4 -4 4 8 6 20 8 28 5 12 -5 11 -8 -2 -23z m-15 -70 c0 -5
-4 -10 -10 -10 -5 0 -10 5 -10 10 0 6 5 10 10 10 6 0 10 -4 10 -10z m8 -38 c2
-7 -2 -10 -12 -6 -9 3 -16 11 -16 16 0 13 23 5 28 -10z m-11 -167 c0 -8 -4
-12 -9 -9 -5 3 -6 10 -3 15 9 13 12 11 12 -6z m-6 -298 c-10 -9 -11 -8 -5 6 3
10 9 15 12 12 3 -3 0 -11 -7 -18z m6 -39 c2 -17 0 -19 -7 -8 -5 8 -6 18 -4 22
8 12 10 10 11 -14z m28 -38 c2 -4 -3 -14 -12 -21 -15 -12 -16 -12 -10 5 6 15
5 17 -6 8 -10 -9 -14 -9 -14 1 0 14 34 20 42 7z m-965 -261 c0 -14 -17 -10
-23 5 -4 10 -1 13 9 9 7 -3 14 -9 14 -14z m940 1 c0 -5 -5 -10 -11 -10 -5 0
-7 5 -4 10 3 6 8 10 11 10 2 0 4 -4 4 -10z m-823 -92 c-3 -8 -6 -5 -6 6 -1 11
2 17 5 13 3 -3 4 -12 1 -19z m820 -200 c-3 -8 -6 -5 -6 6 -1 11 2 17 5 13 3
-3 4 -12 1 -19z"/>
<path d="M1371 2583 c-1 -14 5 -23 14 -23 8 0 15 4 15 9 0 5 8 12 18 15 9 3 5
4 -10 2 -15 -2 -29 2 -32 8 -2 6 -5 1 -5 -11z"/>
<path d="M1360 2516 c0 -2 8 -10 18 -17 15 -13 16 -12 3 4 -13 16 -21 21 -21
13z"/>
<path d="M1373 2465 c0 -8 4 -12 9 -9 5 3 6 10 3 15 -9 13 -12 11 -12 -6z"/>
<path d="M1050 2330 c0 -5 5 -10 11 -10 5 0 7 5 4 10 -3 6 -8 10 -11 10 -2 0
-4 -4 -4 -10z"/>
<path d="M1399 2303 c-13 -16 -12 -17 4 -4 9 7 17 15 17 17 0 8 -8 3 -21 -13z"/>
<path d="M1665 2201 c-3 -6 -14 -8 -25 -6 -12 2 -18 0 -15 -4 7 -12 -24 -23
-37 -14 -7 4 -8 1 -3 -7 6 -10 4 -12 -8 -7 -10 3 -17 2 -17 -3 0 -5 -12 -13
-27 -16 -16 -4 -34 -12 -42 -18 -11 -8 -13 -8 -7 2 4 6 2 12 -3 12 -6 0 -11
-7 -11 -15 0 -8 -4 -15 -9 -15 -5 0 -18 -3 -28 -6 -15 -5 -16 -4 -3 6 13 10
13 11 -2 6 -11 -3 -25 5 -38 22 -12 15 -18 20 -14 12 4 -8 14 -23 22 -33 15
-16 11 -31 -9 -33 -5 -1 -13 -2 -17 -3 -12 -2 -8 -106 3 -106 6 0 17 -4 25
-10 13 -8 13 -7 1 8 -8 10 -11 21 -7 24 4 4 12 1 17 -7 9 -12 10 -12 5 3 -3 9
-1 17 5 17 6 0 8 4 5 9 -3 5 8 14 24 21 17 7 30 17 30 23 0 6 3 8 6 4 4 -3 13
1 21 9 8 8 19 11 25 8 7 -4 8 -2 4 4 -6 11 6 16 27 13 4 0 7 5 7 12 0 8 12 20
28 28 15 8 32 20 38 28 6 8 16 11 23 7 7 -5 10 -2 9 6 -2 7 3 12 10 10 8 -1
11 2 7 8 -8 12 -12 13 -20 1z"/>
<path d="M1375 2189 c-4 -6 -4 -13 -1 -16 3 -4 6 -1 6 6 0 7 5 9 12 5 7 -4 8
-3 4 4 -9 15 -13 15 -21 1z"/>
<path d="M1419 2143 c-13 -16 -12 -17 4 -4 16 13 21 21 13 21 -2 0 -10 -8 -17
-17z"/>
<path d="M950 2130 c-9 -6 -10 -10 -3 -10 6 0 15 5 18 10 8 12 4 12 -15 0z"/>
<path d="M830 2026 c0 -2 8 -10 18 -17 15 -13 16 -12 3 4 -13 16 -21 21 -21
13z"/>
<path d="M795 1961 c-3 -5 -2 -12 3 -15 5 -3 9 1 9 9 0 17 -3 19 -12 6z"/>
<path d="M1380 1950 c0 -6 7 -10 15 -10 8 0 15 2 15 4 0 2 -7 6 -15 10 -8 3
-15 1 -15 -4z"/>
<path d="M776 1908 c3 -5 10 -6 15 -3 13 9 11 12 -6 12 -8 0 -12 -4 -9 -9z"/>
<path d="M1436 1912 c-3 -5 1 -9 9 -9 8 0 12 4 9 9 -3 4 -7 8 -9 8 -2 0 -6 -4
-9 -8z"/>
<path d="M740 1841 c0 -7 -5 -9 -12 -5 -7 5 -8 3 -3 -5 5 -9 10 -10 18 -2 6 6
8 14 4 18 -4 3 -7 1 -7 -6z"/>
<path d="M1364 1805 c0 -20 3 -22 23 -12 13 5 23 15 23 20 0 6 -3 7 -6 4 -4
-3 -14 -2 -23 3 -14 7 -17 4 -17 -15z"/>
<path d="M684 1784 c-18 -14 -18 -15 4 -4 12 6 22 13 22 15 0 8 -5 6 -26 -11z"/>
<path d="M631 1704 c7 -8 6 -14 -3 -17 -9 -4 -10 -6 -1 -6 7 -1 17 7 22 17 7
14 6 18 -9 18 -14 0 -16 -4 -9 -12z"/>
<path d="M1536 1568 c3 -5 10 -6 15 -3 13 9 11 12 -6 12 -8 0 -12 -4 -9 -9z"/>
<path d="M1410 1519 c0 -5 -4 -8 -8 -5 -4 2 -9 -5 -9 -17 -2 -20 -1 -21 11 -5
7 10 16 15 20 11 4 -4 4 0 0 10 -7 19 -14 22 -14 6z"/>
<path d="M490 1511 c0 -6 4 -13 10 -16 6 -3 7 1 4 9 -7 18 -14 21 -14 7z"/>
<path d="M456 1472 c-3 -5 1 -9 9 -9 8 0 12 4 9 9 -3 4 -7 8 -9 8 -2 0 -6 -4
-9 -8z"/>
<path d="M436 1437 c3 -10 9 -15 12 -12 3 3 0 11 -7 18 -10 9 -11 8 -5 -6z"/>
<path d="M1420 1370 c-9 -6 -10 -10 -3 -10 6 0 15 5 18 10 8 12 4 12 -15 0z"/>
<path d="M1710 1350 c0 -5 5 -10 10 -10 6 0 10 5 10 10 0 6 -4 10 -10 10 -5 0
-10 -4 -10 -10z"/>
<path d="M330 1329 c0 -5 5 -7 10 -4 6 3 10 8 10 11 0 2 -4 4 -10 4 -5 0 -10
-5 -10 -11z"/>
<path d="M1415 1329 c-4 -6 -5 -12 -2 -15 2 -3 7 2 10 11 7 17 1 20 -8 4z"/>
<path d="M1430 1271 c0 -6 4 -13 10 -16 6 -3 7 1 4 9 -7 18 -14 21 -14 7z"/>
<path d="M293 1235 c0 -8 4 -12 9 -9 5 3 6 10 3 15 -9 13 -12 11 -12 -6z"/>
<path d="M1364 1186 c1 -8 5 -18 8 -22 4 -3 5 1 4 10 -1 8 -5 18 -8 22 -4 3
-5 -1 -4 -10z"/>
<path d="M215 1130 c-3 -6 1 -7 9 -4 18 7 21 14 7 14 -6 0 -13 -4 -16 -10z"/>
<path d="M1779 1103 c-13 -16 -12 -17 4 -4 16 13 21 21 13 21 -2 0 -10 -8 -17
-17z"/>
<path d="M1930 1091 c0 -6 4 -13 10 -16 6 -3 7 1 4 9 -7 18 -14 21 -14 7z"/>
<path d="M175 1079 c-4 -6 -5 -12 -2 -15 2 -3 7 2 10 11 7 17 1 20 -8 4z"/>
<path d="M1421 1024 c0 -11 3 -14 6 -6 3 7 2 16 -1 19 -3 4 -6 -2 -5 -13z"/>
<path d="M1390 965 c-8 -9 -15 -33 -16 -53 -1 -33 0 -34 9 -15 9 21 11 22 24
5 13 -16 13 -15 5 3 -10 21 -5 48 7 41 4 -3 8 1 8 9 0 8 -4 12 -8 9 -4 -2 -9
1 -11 7 -2 7 -9 5 -18 -6z m10 -25 c-6 -11 -12 -20 -14 -20 -3 0 -1 23 3 38 1
1 6 2 11 2 7 0 7 -6 0 -20z"/>
<path d="M1451 954 c0 -11 3 -14 6 -6 3 7 2 16 -1 19 -3 4 -6 -2 -5 -13z"/>
<path d="M1496 948 c3 -5 10 -6 15 -3 13 9 11 12 -6 12 -8 0 -12 -4 -9 -9z"/>
<path d="M1905 910 c-3 -6 1 -7 9 -4 18 7 21 14 7 14 -6 0 -13 -4 -16 -10z"/>
<path d="M154 899 c-3 -6 -2 -15 3 -20 5 -5 9 -1 9 11 0 23 -2 24 -12 9z"/>
<path d="M190 903 c0 -4 12 -19 25 -32 18 -17 22 -27 15 -36 -7 -8 -5 -12 5
-12 8 0 12 4 9 9 -3 4 0 8 5 8 6 0 11 -5 11 -12 0 -6 3 -9 6 -5 4 3 -12 24
-35 47 -22 22 -41 37 -41 33z"/>
<path d="M1675 879 c-4 -6 -5 -12 -2 -15 2 -3 7 2 10 11 7 17 1 20 -8 4z"/>
<path d="M174 848 c-4 -7 -4 -10 1 -6 4 4 15 2 24 -5 14 -11 14 -10 2 6 -16
20 -18 21 -27 5z"/>
<path d="M285 809 c-6 -8 -4 -10 5 -4 10 6 12 4 6 -11 -6 -15 -5 -17 5 -6 9 9
10 15 2 23 -8 8 -13 7 -18 -2z"/>
<path d="M2190 789 c0 -5 5 -7 10 -4 6 3 10 8 10 11 0 2 -4 4 -10 4 -5 0 -10
-5 -10 -11z"/>
<path d="M1627 749 c7 -7 15 -10 18 -7 3 3 -2 9 -12 12 -14 6 -15 5 -6 -5z"/>
<path d="M1415 719 c-4 -6 -5 -12 -2 -15 2 -3 7 2 10 11 7 17 1 20 -8 4z"/>
<path d="M420 705 c0 -8 2 -15 4 -15 2 0 6 7 10 15 3 8 1 15 -4 15 -6 0 -10
-7 -10 -15z"/>
<path d="M1460 710 c-9 -6 -10 -10 -3 -10 6 0 15 5 18 10 8 12 4 12 -15 0z"/>
<path d="M1430 701 c0 -10 19 -25 25 -20 1 2 -3 10 -11 17 -8 7 -14 8 -14 3z"/>
<path d="M1374 659 c-1 -21 3 -39 7 -39 5 0 8 5 7 11 -2 6 3 14 10 16 19 7 10
-20 -12 -33 -17 -10 -17 -12 -2 -17 10 -4 19 -1 22 8 4 8 10 12 15 9 5 -3 12
3 16 13 4 10 11 21 17 25 7 5 6 8 -2 8 -8 0 -16 -9 -19 -20 -3 -11 -9 -17 -14
-14 -5 3 -4 14 2 25 11 22 9 29 -13 33 -7 1 -18 4 -23 8 -6 4 -11 -9 -11 -33z
m41 9 c3 -3 -3 -8 -13 -10 -11 -3 -19 0 -19 7 0 13 21 14 32 3z"/>
<path d="M1990 686 c0 -2 8 -10 18 -17 15 -13 16 -12 3 4 -13 16 -21 21 -21
13z"/>
<path d="M490 676 c0 -2 7 -7 16 -10 8 -3 12 -2 9 4 -6 10 -25 14 -25 6z"/>
<path d="M1476 672 c-3 -5 1 -9 9 -9 8 0 12 4 9 9 -3 4 -7 8 -9 8 -2 0 -6 -4
-9 -8z"/>
<path d="M542 623 c-16 -13 -15 -13 3 -5 11 5 26 7 33 5 6 -3 12 -1 12 5 0 13
-28 11 -48 -5z"/>
<path d="M546 588 c3 -5 10 -6 15 -3 13 9 11 12 -6 12 -8 0 -12 -4 -9 -9z"/>
<path d="M575 570 c-3 -5 -1 -10 4 -10 6 0 11 5 11 10 0 6 -2 10 -4 10 -3 0
-8 -4 -11 -10z"/>
<path d="M636 563 c-6 -14 -5 -15 5 -6 7 7 10 15 7 18 -3 3 -9 -2 -12 -12z"/>
<path d="M666 564 c-8 -21 -8 -24 5 -24 5 0 7 5 3 12 -5 8 -2 9 11 4 15 -5 16
-4 5 9 -15 19 -16 19 -24 -1z"/>
<path d="M750 506 c0 -2 7 -7 16 -10 8 -3 12 -2 9 4 -6 10 -25 14 -25 6z"/>
<path d="M716 488 c3 -5 10 -6 15 -3 13 9 11 12 -6 12 -8 0 -12 -4 -9 -9z"/>
<path d="M805 471 c-3 -5 -2 -12 3 -15 5 -3 9 1 9 9 0 17 -3 19 -12 6z"/>
<path d="M1412 455 c-12 -14 -19 -25 -16 -25 4 0 17 11 30 25 13 14 20 25 15
25 -4 0 -17 -11 -29 -25z"/>
<path d="M816 431 c8 -8 44 -8 44 1 0 4 -11 7 -25 6 -13 -1 -22 -4 -19 -7z"/>
<path d="M1440 430 c-9 -6 -10 -10 -3 -10 6 0 15 5 18 10 8 12 4 12 -15 0z"/>
<path d="M911 390 c14 -31 19 -36 19 -24 0 6 -7 19 -16 30 -14 18 -14 18 -3
-6z"/>
<path d="M893 365 c0 -8 4 -12 9 -9 5 3 6 10 3 15 -9 13 -12 11 -12 -6z"/>
<path d="M1396 362 c-4 -12 -11 -22 -15 -22 -17 0 -5 -43 12 -46 27 -4 40 31
24 63 -14 26 -15 26 -21 5z m14 -49 c-10 -16 -11 -16 -6 2 6 20 6 20 -9 1 -18
-24 -19 -16 -3 19 10 22 13 23 20 10 6 -9 5 -22 -2 -32z"/>
<path d="M980 335 c0 -7 30 -13 34 -7 3 4 -4 9 -15 9 -10 1 -19 0 -19 -2z"/>
<path d="M970 311 c0 -6 4 -12 8 -15 5 -3 9 1 9 9 0 8 -4 15 -9 15 -4 0 -8 -4
-8 -9z"/>
<path d="M1037 289 c7 -7 15 -10 18 -7 3 3 -2 9 -12 12 -14 6 -15 5 -6 -5z"/>
<path d="M1006 273 c-6 -14 -5 -15 5 -6 7 7 10 15 7 18 -3 3 -9 -2 -12 -12z"/>
<path d="M1075 279 c-4 -6 -4 -13 -1 -16 3 -4 6 -1 6 6 0 7 5 9 12 5 7 -4 8
-3 4 4 -9 15 -13 15 -21 1z"/>
<path d="M1100 260 c-9 -6 -10 -10 -3 -10 6 0 15 5 18 10 8 12 4 12 -15 0z"/>
<path d="M1136 192 c-2 -4 4 -8 14 -8 10 0 16 4 14 8 -3 4 -9 8 -14 8 -5 0
-11 -4 -14 -8z"/>
<path d="M1185 190 c-3 -6 1 -7 9 -4 18 7 21 14 7 14 -6 0 -13 -4 -16 -10z"/>
<path d="M1206 174 c-11 -8 -16 -14 -10 -14 13 0 39 18 34 24 -3 2 -14 -2 -24
-10z"/>
<path d="M1247 159 c4 -13 8 -18 11 -10 2 7 -1 18 -6 23 -8 8 -9 4 -5 -13z"/>
<path d="M1347 89 c7 -7 15 -10 18 -7 3 3 -2 9 -12 12 -14 6 -15 5 -6 -5z"/>
<path d="M1320 76 c0 -2 8 -10 18 -17 15 -13 16 -12 3 4 -13 16 -21 21 -21 13z"/>
</g>
</svg>
