<?xml version="1.0" encoding="utf-8"?>
<!-- Generator: Adobe Illustrator 23.0.0, SVG Export Plug-In . SVG Version: 6.00 Build 0)  -->
<svg version="1.1" id="Layer_1" xmlns="http://www.w3.org/2000/svg" xmlns:xlink="http://www.w3.org/1999/xlink" x="0px" y="0px"
	 viewBox="0 0 512 71" style="enable-background:new 0 0 512 71;" xml:space="preserve">
<style type="text/css">
	.st0{fill:#007FE8;}
</style>
<g>
	<path class="st0" d="M498.4,23.9c-5.3,0-9.6,4.3-9.6,9.6c0,1.6,0.4,3,1.1,4.4l-7,5.1l-11.7-9.7c-0.3-0.3-0.8-0.4-1.2-0.4H278.6
		c-0.5,0-1,0.2-1.4,0.6l-12.4,12.6c-0.8,0.8-0.7,2,0,2.7c0.4,0.4,0.9,0.6,1.4,0.6s1-0.2,1.4-0.6l11.8-12h190L481.7,47
		c0.7,0.6,1.7,0.6,2.4,0.1l8.4-6.1c1.6,1.3,3.7,2.2,6,2.2c5.3,0,9.6-4.3,9.6-9.6C508,28.2,503.7,23.9,498.4,23.9L498.4,23.9z
		 M498.4,39.1c-3.1,0-5.7-2.5-5.7-5.7c0-3.1,2.5-5.7,5.7-5.7s5.7,2.5,5.7,5.7S501.6,39.1,498.4,39.1z"/>
	<path class="st0" d="M234.8,33.3c-0.4-0.4-0.9-0.6-1.4-0.6H41.9c-0.5,0-0.9,0.2-1.2,0.4L29,42.9l-7-5.1c0.7-1.3,1.1-2.8,1.1-4.4
		c0-5.3-4.3-9.6-9.6-9.6s-9.6,4.3-9.6,9.6S8.3,43,13.6,43c2.3,0,4.4-0.8,6-2.2l8.4,6.1c0.7,0.5,1.7,0.5,2.4-0.1l12.3-10.2h190
		l11.8,12c0.4,0.4,0.9,0.6,1.4,0.6s1-0.2,1.4-0.6c0.8-0.8,0.8-2,0-2.8L234.8,33.3z M13.6,39.1c-3.1,0-5.7-2.5-5.7-5.7
		c0-3.1,2.5-5.7,5.7-5.7c3.1,0,5.7,2.5,5.7,5.7C19.2,36.6,16.7,39.1,13.6,39.1z"/>
	<path class="st0" d="M269,34.7c0-0.5-0.2-1-0.6-1.4l-11-11c-0.7-0.7-2-0.7-2.8,0l-11,11c-0.4,0.4-0.6,0.9-0.6,1.4s0.2,1,0.6,1.4
		l11,11c0.4,0.4,0.9,0.6,1.4,0.6c0.5,0,1-0.2,1.4-0.6l11-11C268.7,35.7,269,35.2,269,34.7z M256,42.9l-8.3-8.3l8.3-8.3l8.3,8.3
		L256,42.9z"/>
</g>
</svg>
