<?xml version="1.0" encoding="utf-8"?>
<!-- Generator: Adobe Illustrator 23.0.0, SVG Export Plug-In . SVG Version: 6.00 Build 0)  -->
<svg version="1.1" id="Layer_1" xmlns="http://www.w3.org/2000/svg" xmlns:xlink="http://www.w3.org/1999/xlink" x="0px" y="0px"
	 viewBox="0 0 512 512" style="enable-background:new 0 0 512 512;" xml:space="preserve">
<style type="text/css">
	.st0{fill:#E0E0E0;}
	.st1{fill:url(#SVGID_1_);}
	.st2{fill-rule:evenodd;clip-rule:evenodd;fill:#FFFFFF;}
	.st3{fill:#FFFFFF;}
</style>
<g>
	<path class="st0" d="M437.4,73.6C389.3,25.4,325.3-1.1,257.1-1.1C116.6-1.1,2.2,113.2,2.1,253.7c0,44.9,11.7,88.8,34,127.4L0,513.1
		l135.1-35.4c37.2,20.3,79.2,31,121.8,31h0.1h0c140.5,0,254.9-114.3,254.9-254.8C512,185.8,485.5,121.8,437.4,73.6L437.4,73.6z
		 M257.1,465.7L257.1,465.7c-38.1,0-75.4-10.2-107.9-29.5l-7.7-4.6l-80.2,21l21.4-78.2l-5-8c-21.2-33.7-32.4-72.7-32.4-112.7
		c0-116.8,95.1-211.8,212-211.8C313.7,41.9,366.9,64,407,104c40,40,62,93.3,62,149.9C468.9,370.7,373.9,465.7,257.1,465.7z"/>
	
		<linearGradient id="SVGID_1_" gradientUnits="userSpaceOnUse" x1="255.9984" y1="14.4888" x2="255.9984" y2="505.2812" gradientTransform="matrix(1 0 0 -1 0 512.984)">
		<stop  offset="0" style="stop-color:#20B038"/>
		<stop  offset="1" style="stop-color:#60D66A"/>
	</linearGradient>
	<path class="st1" d="M11.7,498.5l34.5-126c-21.3-36.9-32.5-78.7-32.5-121.6C13.8,116.8,122.9,7.7,257,7.7
		c65.1,0,126.2,25.4,172.1,71.3c45.9,46,71.2,107.1,71.2,172.1C500.2,385.2,391.1,494.3,257,494.3c0,0,0,0,0,0h-0.1
		c-40.7,0-80.7-10.2-116.2-29.6L11.7,498.5L11.7,498.5z"/>
	<path class="st2" d="M194.1,145.5c-4.7-10.5-9.7-10.7-14.2-10.9c-3.7-0.2-7.9-0.1-12.1-0.1c-4.2,0-11,1.6-16.8,7.9
		c-5.8,6.3-22,21.5-22,52.5c0,31,22.6,60.9,25.7,65.1c3.1,4.2,43.6,69.8,107.6,95c53.2,21,64,16.8,75.6,15.8
		c11.5-1,37.3-15.2,42.5-29.9c5.2-14.7,5.2-27.3,3.7-29.9c-1.6-2.6-5.8-4.2-12.1-7.3c-6.3-3.1-37.3-18.4-43-20.5
		c-5.8-2.1-10-3.1-14.2,3.2c-4.2,6.3-16.3,20.5-19.9,24.7c-3.7,4.2-7.3,4.7-13.6,1.6c-6.3-3.2-26.6-9.8-50.6-31.3
		c-18.7-16.7-31.4-37.3-35-43.6c-3.7-6.3-0.4-9.7,2.8-12.8c2.8-2.8,6.3-7.4,9.4-11c3.1-3.7,4.2-6.3,6.3-10.5c2.1-4.2,1-7.9-0.5-11
		S199.7,157.9,194.1,145.5L194.1,145.5z"/>
	<path class="st3" d="M435.3,72.8C387.7,25.2,324.5-1.1,257.1-1.1c-138.9,0-251.9,113-252,251.9c0,44.4,11.6,87.7,33.6,125.9
		L2.9,507.3l133.6-35c36.8,20.1,78.2,30.7,120.4,30.7h0.1h0c138.9,0,251.9-113,252-251.9C509.1,183.7,482.9,120.4,435.3,72.8
		L435.3,72.8z M257.1,460.4L257.1,460.4c-37.7,0-74.5-10.1-106.7-29.2l-7.7-4.5l-79.3,20.8l21.2-77.3l-5-7.9
		c-21-33.3-32-71.9-32-111.4c0-115.4,94-209.4,209.5-209.4c55.9,0,108.5,21.8,148.1,61.4c39.5,39.6,61.3,92.2,61.3,148.1
		C466.5,366.4,372.5,460.4,257.1,460.4z"/>
</g>
</svg>
